<svg width="69" height="48" viewBox="0 0 69 48" fill="none" xmlns="http://www.w3.org/2000/svg">
<path d="M24.1889 43.3772C21.9729 43.6631 19.8637 43.6665 17.8912 43.4234C11.0625 42.5713 5.9562 38.5597 4.38512 31.3139C2.5296 22.7475 8.05184 15.6372 16.8063 12.6272C30.9362 7.77441 28.6784 19.0315 31.0724 26.0657C31.8162 31.1813 35.308 37.1454 31.5615 40.6756C30.2084 41.9444 27.9118 42.9045 24.1912 43.3874L24.1889 43.3772ZM7.00584 25.9911C5.91776 30.6807 6.34621 33.9239 11.8368 37.6426C10.8727 32.32 11.3945 28.5779 7.00584 25.9911ZM27.1989 19.1044C24.863 8.78971 18.1086 15.2281 13.5251 16.0284C9.17107 16.7973 9.45243 19.8703 13.0321 22.3108C12.9256 26.4513 12.8144 30.5714 14.38 34.5407C16.2131 39.2006 17.737 43.0829 24.6092 41.1953C31.5506 39.281 31.0101 35.1824 29.8724 30.1793C29.0373 26.4819 28.0977 22.7978 27.2115 19.1122L27.1989 19.1044Z" fill="#DCDBDA"/>
<path d="M24.5988 41.1986C17.7289 43.0963 16.2051 39.214 14.3696 34.544C12.8016 30.5644 12.9128 26.4443 13.0217 22.314C17.7474 21.2444 22.473 20.1748 27.1885 19.1076C28.0747 22.7932 29.0143 26.4773 29.8495 30.1747C30.9871 35.1778 31.5276 39.2764 24.5862 41.1907L24.5988 41.1986Z" fill="#FEFEFD"/>
<path d="M13.5256 16.0294C18.1068 15.2189 24.8612 8.7805 27.1995 19.1054C22.4738 20.1749 17.7481 21.2445 13.0327 22.3118C9.45536 19.8815 9.17164 16.7983 13.5256 16.0294Z" fill="#FEFEFE"/>
<path d="M39.6767 17.1679C39.2916 24.1971 33.9442 33.2526 48.078 33.803C58.0509 34.1972 65.5421 29.5206 66.726 20.0231C67.8092 11.3256 61.6745 4.73157 52.6867 2.50824C38.1808 -1.07504 41.4345 9.93856 39.6781 17.1575L39.6767 17.1679ZM63.6392 14.9632C65.1416 19.5383 65.0044 22.8069 59.8681 26.9972C60.353 21.6099 59.4993 17.9285 63.6392 14.9632ZM42.9116 9.90098C44.3171 -0.580508 51.619 5.23506 56.2555 5.62658C60.6605 6.00703 60.6546 9.09305 57.3073 11.8409C57.7831 15.956 58.2616 20.0503 57.0568 24.1429C55.6471 28.947 54.4761 32.9491 47.4631 31.6772C40.3789 30.3847 40.5513 26.2542 41.2376 21.1697C41.7393 17.4127 42.3462 13.6597 42.8997 9.90991L42.9116 9.90098Z" fill="#DCDBDA"/>
<path d="M47.4684 31.6647C54.48 32.9453 55.6521 28.9432 57.0645 24.1287C58.2718 20.0257 57.7941 15.9318 57.3179 11.8275C52.5157 11.1816 47.7134 10.5356 42.9216 9.89109C42.3671 13.6408 41.7593 17.3936 41.2568 21.1505C40.5692 26.2348 40.3959 30.3651 47.4802 31.6558L47.4684 31.6647Z" fill="#FEFEFD"/>
<path d="M56.2549 5.62283C51.6197 5.22206 44.3187 -0.591411 42.9091 9.90008C47.7114 10.546 52.5136 11.192 57.3054 11.8365C60.6521 9.09841 60.6602 6.00222 56.2549 5.62283Z" fill="#FEFEFE"/>
</svg>
