<svg width="101" height="50" viewBox="0 0 101 50" fill="none" xmlns="http://www.w3.org/2000/svg">
<path d="M20.7443 11.2118L20.4092 5.31236L15.4589 8.55175L20.7443 11.2118Z" fill="white"/>
<ellipse cx="3.41563" cy="3.41327" rx="3.41563" ry="3.41327" transform="matrix(0.836766 -0.54756 -0.548888 -0.835896 16.0127 10.2285)" fill="white"/>
<path d="M11.7157 14.362L7.82334 9.91034L5.9076 15.5012L11.7157 14.362Z" fill="white"/>
<ellipse cx="3.41211" cy="3.41679" rx="3.41211" ry="3.41679" transform="matrix(0.324154 -0.946004 -0.946348 -0.323151 7.37598 16.4854)" fill="white"/>
<path d="M36.1889 45.3762C33.9729 45.6622 31.8637 45.6655 29.8912 45.4224C23.0625 44.5704 17.9562 40.5587 16.3851 33.313C14.5296 24.7465 20.0518 17.6362 28.8063 14.6263C42.9362 9.77343 40.6784 21.0305 43.0724 28.0648C43.8162 33.1803 47.308 39.1444 43.5615 42.6746C42.2084 43.9434 39.9118 44.9035 36.1912 45.3864L36.1889 45.3762ZM19.0058 27.9902C17.9178 32.6797 18.3462 35.9229 23.8368 39.6416C22.8727 34.319 23.3945 30.577 19.0058 27.9902ZM39.1989 21.1034C36.863 10.7887 30.1086 17.2271 25.5251 18.0275C21.1711 18.7963 21.4524 21.8693 25.0321 24.3098C24.9256 28.4503 24.8144 32.5704 26.38 36.5398C28.2131 41.1996 29.737 45.0819 36.6092 43.1943C43.5506 41.2801 43.0101 37.1815 41.8724 32.1783C41.0373 28.4809 40.0977 24.7969 39.2115 21.1112L39.1989 21.1034Z" fill="#DCDBDA"/>
<path d="M36.5988 43.1976C29.7289 45.0954 28.2051 41.2131 26.3696 36.543C24.8016 32.5634 24.9128 28.4433 25.0217 24.313C29.7474 23.2434 34.473 22.1738 39.1885 21.1066C40.0747 24.7923 41.0143 28.4763 41.8495 32.1737C42.9871 37.1769 43.5276 41.2754 36.5862 43.1897L36.5988 43.1976Z" fill="#FDD504"/>
<path d="M25.5256 18.0285C30.1068 17.2179 36.8612 10.7795 39.1995 21.1044C34.4738 22.174 29.7481 23.2436 25.0327 24.3108C21.4554 21.8805 21.1716 18.7973 25.5256 18.0285Z" fill="#FEFEFE"/>
<path d="M51.6767 19.1669C51.2916 26.1962 45.9442 35.2517 60.078 35.802C70.0509 36.1962 77.5421 31.5196 78.726 22.0221C79.8092 13.3246 73.6745 6.7306 64.6867 4.50726C50.1808 0.923986 53.4345 11.9376 51.6781 19.1566L51.6767 19.1669ZM75.6392 16.9623C77.1416 21.5373 77.0044 24.8059 71.8681 28.9963C72.353 23.6089 71.4993 19.9275 75.6392 16.9623ZM54.9116 11.9C56.3171 1.41852 63.619 7.23409 68.2555 7.6256C72.6605 8.00605 72.6546 11.0921 69.3073 13.84C69.7831 17.955 70.2616 22.0493 69.0568 26.1419C67.6471 30.946 66.4761 34.9481 59.4631 33.6762C52.3789 32.3837 52.5513 28.2532 53.2376 23.1687C53.7393 19.4117 54.3462 15.6587 54.8997 11.9089L54.9116 11.9Z" fill="#DCDBDA"/>
<path d="M59.4684 33.6638C66.48 34.9444 67.6521 30.9422 69.0645 26.1277C70.2718 22.0248 69.7941 17.9308 69.3179 13.8266C64.5157 13.1806 59.7134 12.5346 54.9216 11.8901C54.3671 15.6398 53.7593 19.3926 53.2568 23.1495C52.5692 28.2338 52.3959 32.3642 59.4802 33.6548L59.4684 33.6638Z" fill="#FDD504"/>
<path d="M68.2549 7.62185C63.6197 7.22108 56.3187 1.40761 54.9091 11.8991C59.7114 12.5451 64.5136 13.191 69.3054 13.8355C72.6521 11.0974 72.6602 8.00124 68.2549 7.62185Z" fill="#FEFEFE"/>
<path d="M82.863 10.7732L85.2076 5.34771L88.7421 10.0875L82.863 10.7732Z" fill="white"/>
<ellipse cx="3.4136" cy="3.4153" rx="3.4136" ry="3.4153" transform="matrix(-0.597787 -0.801655 0.802645 -0.596457 87.6448 11.4727)" fill="white"/>
<path d="M90.2575 16.8275L95.4448 13.9815L95.3202 19.8891L90.2575 16.8275Z" fill="white"/>
<ellipse cx="3.4115" cy="3.4174" rx="3.4115" ry="3.4174" transform="matrix(0.0210974 -0.999777 0.999779 0.0210245 93.6023 20.3105)" fill="white"/>
</svg>
