<svg width="51" height="41" viewBox="0 0 51 41" fill="none" xmlns="http://www.w3.org/2000/svg">
<path d="M10.3351 30.7503C10.3351 34.5257 12.2891 37.5837 15.8282 37.5837C19.3674 37.5837 22.2398 35.0212 23.1548 30.7503C23.5953 28.702 24.4949 27.4652 25.9031 26.4795C29.5663 23.917 32.3129 19.9742 32.3129 15.3753C32.3129 13.8049 32.005 12.2499 31.4067 10.7991C30.8085 9.34822 29.9316 8.02994 28.8261 6.91951C27.7207 5.80907 26.4083 4.92823 24.9639 4.32727C23.5196 3.7263 21.9715 3.41699 20.4082 3.41699C18.8448 3.41699 17.2968 3.7263 15.8524 4.32727C14.4081 4.92823 13.0957 5.80907 11.9902 6.91951C10.8848 8.02994 10.0079 9.34822 9.40961 10.7991C8.81134 12.2499 8.50342 13.8049 8.50342 15.3753" stroke="#FEAE83" stroke-width="1.5" stroke-linecap="round" stroke-linejoin="round"/>
<path d="M15.3062 25.625C17.6616 25.625 19.5715 23.9047 19.5715 21.7813C19.5715 19.6578 17.6616 17.9375 15.3062 17.9375C15.3062 14.4918 16.0953 10.25 20.4252 10.25C23.4694 10.25 25.2551 12.5972 25.5102 15.6312" stroke="#FEAE83" stroke-width="1.5" stroke-linecap="round" stroke-linejoin="round"/>
<path d="M39.7959 12.1741C40.9793 15.1967 41.4046 18.4652 41.0343 21.6918C40.9283 22.4258 40.7616 23.1496 40.536 23.8558M43.8899 9.25782C45.4285 13.2991 45.9859 17.6505 45.5159 21.9513C45.3799 22.9282 45.1665 23.8926 44.8777 24.8354M48.0131 8.2002C49.7164 12.7795 50.3372 17.6937 49.8265 22.5553C49.6806 23.659 49.4474 24.7494 49.1291 25.816" stroke="#FEAE83" stroke-width="1.5" stroke-miterlimit="10" stroke-linecap="round"/>
</svg>
