<svg width="48" height="66" viewBox="0 0 48 66" fill="none" xmlns="http://www.w3.org/2000/svg">
<g clip-path="url(#clip0_321_4319)">
<path d="M47.9169 38.4854C47.9169 36.7772 47.4629 35.3198 46.5999 34.2691C45.7715 33.2557 44.5896 32.6762 43.3593 32.6762C42.6626 32.6762 41.959 32.866 41.3282 33.2388C40.9227 30.3918 38.6664 28.9073 36.4309 28.9073C35.1901 28.9073 33.9424 29.3784 33.0135 30.2969C32.8402 29.9885 32.6392 29.7004 32.4174 29.436C31.4955 28.3413 30.1819 27.7143 28.8198 27.7143C28.0018 27.7143 27.2913 27.9108 26.6848 28.243C26.6952 26.8093 26.7125 25.8163 26.7299 24.891C26.7541 23.5658 26.7715 22.4202 26.7715 20.3697C26.7715 17.0482 25.087 13.686 21.8672 13.686C19.5139 13.686 16.9768 15.8111 16.9768 20.4815V44.6437C15.4692 43.1423 13.5005 41.1833 12.3533 40.0546C9.54247 37.2788 6.92918 37.6516 5.54282 38.8141C3.69203 40.3664 3.23453 43.8032 5.93793 47.3653C6.64844 48.3007 7.36935 49.2836 8.06946 50.2326C12.2493 55.9097 16.5678 61.7799 22.959 64.9116C23.5586 65.2065 24.2864 64.9692 24.5879 64.3829C24.8895 63.7965 24.6469 63.0848 24.0473 62.7899C18.1899 59.9192 14.0481 54.2896 10.0381 48.8464C9.33451 47.8906 8.60667 46.901 7.88577 45.952C5.97259 43.4303 6.28799 41.312 7.1198 40.6139C7.90309 39.9563 9.27559 40.3935 10.6238 41.7221C12.6514 43.7218 17.2714 48.3279 17.3165 48.3753C17.6631 48.721 18.1864 48.8261 18.6405 48.6431C19.098 48.46 19.396 48.0262 19.396 47.5449V20.4815C19.396 17.5769 20.6368 16.0585 21.8603 16.0585C23.0837 16.0585 24.3384 17.5396 24.3384 20.3697C24.3384 22.4033 24.3176 23.5387 24.2968 24.8537C24.2691 26.5314 24.2344 28.4362 24.2344 32.7473C24.2344 32.7473 24.2344 32.7473 24.2344 32.7507V36.6009C24.2344 37.2551 24.7786 37.7872 25.4475 37.7872C26.1164 37.7872 26.6605 37.2551 26.6605 36.6009V32.7338C26.664 30.9171 27.7766 30.0868 28.8129 30.0868C29.461 30.0868 30.0745 30.3918 30.5389 30.9442C31.1662 31.6899 31.4989 32.8253 31.4989 34.2285C31.4989 34.2759 31.5093 34.32 31.5128 34.364V38.4854C31.5128 39.1395 32.057 39.6716 32.7259 39.6716C33.3948 39.6716 33.9389 39.1395 33.9389 38.4854V34.103C33.9389 34.0827 33.932 34.059 33.932 34.0387C34.0083 32.0085 35.3045 31.2764 36.4205 31.2764C37.0756 31.2764 37.689 31.517 38.1431 31.9576C38.6734 32.4728 38.9576 33.2354 38.9576 34.1607V38.0583C38.9576 38.1092 38.968 38.1566 38.9714 38.2041V41.3188C38.9714 41.973 39.5156 42.5051 40.1845 42.5051C40.8534 42.5051 41.3976 41.973 41.3976 41.3188V37.6516C41.5223 35.8655 42.4651 35.0453 43.3489 35.0453C43.8479 35.0453 44.3262 35.2961 44.6971 35.7468C45.0541 36.1841 45.4804 37.0144 45.4804 38.482C45.4804 40.5325 45.5012 42.5491 45.5254 44.6878C45.5497 47.0298 45.5774 49.4531 45.5774 52.151C45.5774 55.9198 44.2812 59.1702 41.9278 61.3088C41.1341 62.0273 40.233 62.6476 39.2452 63.1458C38.6491 63.4474 38.4169 64.1626 38.7219 64.7455C38.9368 65.1522 39.3631 65.3895 39.7998 65.3895C39.9869 65.3895 40.1776 65.3454 40.3543 65.2573C41.5362 64.6608 42.621 63.9185 43.5741 63.0509C46.4266 60.4581 48.0001 56.5909 48.0001 52.1543C48.0001 49.4463 47.9724 47.0162 47.9481 44.6674C47.9238 42.5356 47.903 40.5257 47.903 38.4888L47.9169 38.4854Z" fill="black"/>
<path d="M25.1251 9.68347C25.3712 9.82243 25.6381 9.88682 25.905 9.88682C26.4456 9.88682 26.969 9.61229 27.2567 9.12424L31.0622 2.67783C31.492 1.94913 31.239 1.01708 30.4903 0.593421C29.7452 0.173151 28.792 0.423957 28.3588 1.15265L24.5533 7.59906C24.1235 8.32775 24.3765 9.25981 25.1251 9.68347Z" fill="black"/>
<path d="M13.7951 9.12424C14.0828 9.61229 14.6096 9.88682 15.1468 9.88682C15.4102 9.88682 15.6806 9.82243 15.9266 9.68347C16.6718 9.2632 16.9283 8.33114 16.4985 7.59906L12.6895 1.15265C12.2597 0.423957 11.3031 0.173151 10.558 0.593421C9.81279 1.01369 9.55632 1.94574 9.98609 2.67783L13.7916 9.12424H13.7951Z" fill="black"/>
<path d="M32.0436 13.1967C32.2262 13.4096 32.4544 13.5594 32.7052 13.6486C33.2133 13.8294 33.8011 13.7465 34.2421 13.3841L40.0728 8.59921C40.7315 8.0582 40.8198 7.09774 40.2645 6.44924C39.7112 5.80509 38.7279 5.72199 38.0659 6.26184L32.2352 11.0467C31.5765 11.5877 31.4882 12.5482 32.0436 13.1967Z" fill="black"/>
<path d="M6.83006 15.0235C7.27108 15.386 7.86214 15.4677 8.36696 15.2881C8.61448 15.2 8.84599 15.049 9.02863 14.8361C9.58187 14.192 9.49689 13.2304 8.83699 12.6862L3.00303 7.90246C2.34432 7.36145 1.3577 7.44571 0.804462 8.08986C0.251223 8.73401 0.336201 9.69564 0.996102 10.2399L6.8268 15.0247L6.83006 15.0235Z" fill="black"/>
</g>
<defs>
<clipPath id="clip0_321_4319">
<rect width="48" height="66" fill="white"/>
</clipPath>
</defs>
</svg>
