<svg width="110" height="124" viewBox="0 0 110 124" fill="none" xmlns="http://www.w3.org/2000/svg">
<path d="M73.6505 0.450664C81.3178 -0.316989 88.3741 5.86293 88.4479 14.1317C77.9678 17.0342 73.37 19.6555 62.6686 26.8528C66.4797 26.0537 70.337 28.4615 76.7833 24.9437C84.0061 21.0047 93.8762 21.7267 98.263 24.104C103.12 26.7195 107.077 29.9114 103.899 39.2979C97.4759 40.0338 78.3107 45.0893 72.5343 49.7991C76.201 50.5471 81.5898 49.0335 85.2141 49.9374C89.9143 51.1007 92.997 46.1457 100.462 48.3516C107.012 50.2898 111.472 61.8927 108.296 70.1612C101.463 67.9432 88.5301 66.1221 79.2902 68.9631C79.6814 76.2288 96.6438 78.2731 99.2082 84.4037C102.691 92.7552 102.344 111.374 96.6693 123.634C87.7645 118.965 78.1804 119.157 73.4326 112.934C67.5871 105.296 63.2045 91.0359 64.0475 77.9596C58.068 80.286 59.2746 84.8402 57.7142 90.7889C55.8436 97.8909 55.2961 105.566 57.8077 111.149C49.9804 108.944 42.492 96.9837 42.3557 87.6446C42.285 83.1717 43.562 77.2957 46.1656 72.2848C48.4656 67.8726 52.2598 64.9104 52.6106 60.4295C45.8302 59.283 34.4273 79.9131 30.6014 88.9107C23.0376 87.5116 19.8525 82.459 20.0201 73.226C20.0767 70.0375 19.4931 64.7775 20.6969 61.1555C22.0219 57.1873 36.2025 46.2986 36.486 42.1073C30.7847 41.5118 4.5247 73.6218 4.01836 73.6798C1.21175 73.9409 -4.01639 56.9582 6.46515 42.5862C11.9123 35.0947 22.7528 29.1099 29.5093 23.8246C31.9632 21.892 33.9946 18.5578 36.7641 16.9214C42.2446 13.6653 47.9142 13.4588 53.3745 10.9905C60.1845 7.92448 66.9639 1.08583 73.6593 0.439588L73.6505 0.450664Z" fill="#006600"/>
</svg>
