<svg width="124" height="180" viewBox="0 0 124 180" fill="none" xmlns="http://www.w3.org/2000/svg">
<path d="M123.181 84.9828C122.164 102.591 112.149 120.152 99.567 135.067C100.052 123.693 101.167 116.405 101.469 106.855C101.707 99.547 94.5299 89.6852 93.2691 83.3447C79.3925 90.5736 87.8306 110.371 88.7182 121.698C89.6832 133.964 84.7066 145.731 75.803 153.871C76.1172 146.967 71.5839 131.657 65.3474 128.414C66.308 137.135 68.4046 149.794 67.9295 158.539C67.4533 167.012 59.0948 178.059 48.6826 179.977C51.5224 171.153 49.0375 152.305 44.4817 143.986C41.0732 150.66 36.1033 165.115 28.9464 169.017C22.3205 172.636 13.5424 174.769 7.40348 177.285C7.12092 167.197 2.27873 151.036 8.07771 142.578C12.3322 136.351 35.0852 132.666 34.3881 126.855C33.6724 121.057 22.4061 127.453 17.0521 129.446C12.7617 131.065 6.38189 132.622 2.87136 134.726C3.76444 124.715 9.93228 111.582 15.0088 107.083C22.7627 100.234 32.4188 101.544 42.0382 103.06C40.4049 94.7886 26.5631 91.1885 18.5952 90.3895C12.9381 89.8293 5.47862 94.2486 0.158215 95.4825C4.30618 83.7694 17.9374 64.5855 29.8116 60.5063C41.9856 56.3222 45.0832 65.4329 54.4236 69.6897C56.5257 67.8478 58.0898 64.6477 58.8442 61.8424C50.7086 60.4584 42.6727 55.9112 34.3032 55.7322C28.3023 55.594 24.7129 58.1501 19.9368 60.6206C19.3113 50.6124 28.5809 40.3164 36.937 35.1197C48.8319 27.715 58.7532 35.6311 69.8997 40.0233C69.7578 31.8629 60.3687 21.0462 51.9858 18.7339C47.2684 17.4216 42.2577 19.4255 37.5506 18.2026C46.5267 7.62807 64.0231 -4.95982 78.1448 2.65627C90.2517 9.19413 90.7054 29.1005 100.87 37.7338C119.203 53.2959 124.038 69.6592 123.15 84.9763L123.181 84.9828Z" fill="#006600"/>
</svg>
