<svg width="229" height="455" viewBox="0 0 229 455" fill="none" xmlns="http://www.w3.org/2000/svg">
<path d="M225.186 47.623C225.186 47.623 175.25 -6.89498 128.95 7.39873C50.1705 31.715 91.2636 343.54 91.2636 343.54" stroke="#685339" stroke-width="8.13" stroke-miterlimit="3.86"/>
<path d="M153.896 105.624C153.896 105.624 149.435 69.9303 113.787 47.6295C78.1299 25.3186 36.1224 124.734 36.1224 124.734" stroke="#685339" stroke-width="8.13" stroke-miterlimit="3.86"/>
<path d="M4.01065 140.801C4.01065 140.801 34.9083 97.9731 46.7945 121.765C58.6806 145.557 51.5705 281.19 51.5705 281.19" stroke="#685339" stroke-width="8.13" stroke-miterlimit="3.86"/>
<rect width="170" height="19.0094" transform="matrix(1 0 -0.000221221 1 4.00513 334.119)" fill="#685339"/>
<rect width="140" height="15.6548" transform="matrix(1 0 -0.000221221 1 19.0051 353.193)" fill="#54432D"/>
<path d="M35.005 367.012L142.733 366.57L131.786 454.765H50.8394L35.005 367.012Z" fill="#392D1E"/>
</svg>
