<svg width="149" height="158" viewBox="0 0 149 158" fill="none" xmlns="http://www.w3.org/2000/svg">
<path d="M2.04566 85.383C12.0849 67.8598 19.1073 63.4907 28.1474 59.7865C30.3299 72.4053 32.7486 77.3543 39.5978 88.3912C39.0991 83.6956 42.0835 77.5335 38.8547 70.5224C35.2477 62.6686 36.9789 49.2691 39.985 42.4198C43.3183 34.8281 47.1738 28.1936 57.1318 28.2812C57.318 36.4766 61.0264 59.6749 65.6227 65.2806C66.7864 60.0823 65.6498 53.5969 66.9758 48.4102C68.7054 41.6568 63.5787 39.757 66.7067 28.886C69.4456 19.3586 82.5584 8.3708 91.3054 8.94959C88.2218 18.9797 85.0011 36.9301 87.2195 47.9337C95.2034 44.2297 99.0584 20.8497 106.014 14.7562C115.475 6.48263 135.805 -1.21364 148.656 0.939127C142.712 14.7911 141.997 27.4095 134.744 36.427C125.837 47.517 109.831 59.5914 95.6044 64.202C97.5846 71.1144 102.673 67.5106 109.03 66.9836C116.613 66.3566 124.96 63.7186 131.297 57.9277C128.142 69.2649 114.353 84.4386 104.121 88.7123C99.2161 90.7644 92.9212 91.6568 87.6965 90.3925C83.0915 89.2687 80.2193 85.5398 75.3414 87.0351C73.4433 96.5266 119.974 105.283 129.448 106.413C127.199 117.052 96.9554 125.582 86.2249 124.636C76.2054 123.75 58.3188 114.965 53.7697 116.432C52.5738 124.242 104.044 141.858 104.047 142.502C104.06 146.116 66.1457 163.62 51.423 156.023C43.7571 152.068 29.9246 149.685 24.7881 143.054C22.913 140.65 19.4519 139.416 17.9257 136.459C14.8911 130.614 7.13329 122.44 4.96715 116.274C2.26452 108.588 -2.23831 92.842 2.0258 85.3853L2.04566 85.383Z" fill="#7FA675"/>
</svg>
