<svg width="195" height="113" viewBox="0 0 195 113" fill="none" xmlns="http://www.w3.org/2000/svg">
<path d="M56.5514 2.23355C66.3928 -1.67308 81.392 1.14969 88.6279 8.80902C76.7865 15.885 72.7592 20.2331 64.3154 31.4107C68.8457 29.0792 76.2001 29.7067 81.9937 23.7465C88.4799 17.0727 102.629 13.6291 110.679 14.0057C119.597 14.4138 127.766 15.7434 131.526 25.8048C123.361 29.1569 101.494 41.8623 97.6479 48.6667C103.316 47.836 109.394 44.1793 115.131 43.5119C122.585 42.6379 122.511 36.7357 134.641 35.6783C145.287 34.7506 161.411 43.6974 164.218 52.7301C152.943 53.5185 133.662 57.2077 123.453 63.7038C130.266 70.304 155.263 65.1444 164.074 69.7938C176.056 76.124 191.673 93.6173 194.49 107.391C178.255 106.764 165.304 110.927 153.43 107.111C138.831 102.43 120.498 90.9775 110.349 78.4462C104.166 83.1118 109.764 86.8405 112.758 93.0324C116.333 100.436 122.208 107.809 130.48 111.956C117.855 113.171 97.2599 105.149 89.005 96.4988C85.0499 92.3604 81.7146 86.3486 80.955 80.6055C80.2927 75.536 82.934 71.2058 79.541 66.8821C69.2623 68.6437 71.4704 92.6173 74.0126 102.587C62.4463 104.435 53.71 101.056 45.9759 92.3865C43.2886 89.3917 37.9466 84.7375 36.4766 80.8682C34.8617 76.6127 44.8786 60.5626 41.6412 56.5433C33.3205 58.3626 25.0943 99.2194 24.4607 99.4833C20.8308 100.896 -0.991153 87.2653 0.943508 69.5031C1.93317 60.2468 11.6081 50.1567 16.2827 42.4216C17.9706 39.6002 32.529 25.0839 37.8786 20.5138C44.5484 14.8258 47.9385 5.62686 56.5415 2.23469L56.5514 2.23355Z" fill="#006600"/>
</svg>
