<svg width="118" height="190" viewBox="0 0 118 190" fill="none" xmlns="http://www.w3.org/2000/svg">
<path d="M115.72 29.9476C119.447 49.8013 116.932 57.6921 112.457 66.3815C102.615 58.1945 97.5757 56.0027 85.2013 52.0431C88.6325 55.2953 90.359 61.9248 97.3505 65.1719C105.191 68.805 112.556 80.1256 114.707 87.3007C117.087 95.2449 118.458 102.801 110.832 109.193C105.372 103.072 87.5175 87.8278 80.3899 86.5498C82.8718 91.2601 87.941 95.4626 90.2942 100.278C93.357 106.543 98.4918 104.656 103.156 114.967C107.249 123.994 104.4 140.885 97.3648 146.112C93.2113 136.477 84.02 120.724 75.1971 113.79C71.5286 121.793 83.7464 142.093 82.413 151.248C80.582 163.693 70.1044 182.747 58.934 189.455C54.4735 175.042 46.842 164.991 46.5174 153.397C46.1025 139.176 50.4629 119.584 58.2844 106.836C52.3055 102.858 50.7664 108.905 46.2671 113.439C40.9026 118.847 36.2729 126.275 35.1987 134.796C30.2511 124.115 30.9042 103.598 35.9155 93.7096C38.3181 88.9633 42.5284 84.1912 47.3202 81.7692C51.5502 79.623 56.1582 80.5955 58.8837 76.2956C54.1705 67.8331 13.1079 91.3985 5.16481 96.6889C-0.0159338 87.132 17.4545 60.993 26.2328 54.7409C34.4244 48.8984 53.7264 43.9782 56.2363 39.9043C52.0749 33.1812 1.51215 53.2028 1.09427 52.717C-1.26227 49.9761 16.2415 12.0314 32.3538 8.24191C40.7474 6.26321 52.8111 -0.899019 61.0253 0.818331C64.0117 1.42274 67.4337 0.124396 70.5154 1.38251C76.6145 3.86581 87.8153 5.04966 93.4616 8.31994C100.5 12.4175 114.134 21.4792 115.717 29.9277L115.72 29.9476Z" fill="#006600"/>
</svg>
