<svg width="229" height="197" viewBox="0 0 229 197" fill="none" xmlns="http://www.w3.org/2000/svg">
<path d="M135.761 5.23416C158.348 14.1357 177.025 34.8035 191.13 57.7068C176.475 52.1861 167.417 47.5849 155.05 43.0708C145.602 39.622 129.639 44.7939 120.794 43.7128C124.293 65.0017 153.795 62.4575 168.995 66.1536C185.437 70.1505 198.707 81.7408 205.526 96.8996C196.628 93.5186 174.678 92.8816 167.75 99.6566C179.562 102.14 197.031 104.831 208.258 109.224C219.127 113.477 230.001 129.178 228.041 143.651C217.725 136.143 192.021 131.294 179.179 133.681C186.439 141.026 203.207 153.736 205.24 164.791C207.14 175.036 206.161 187.453 206.814 196.561C193.493 192.589 170.3 191.994 161.729 180.762C155.42 172.503 160.347 141.115 152.452 139.543C144.559 137.99 148.097 155.498 148.416 163.366C148.688 169.679 148.005 178.709 149.239 184.207C136.543 178.754 122 165.013 118.3 156.435C112.661 143.326 118.517 131.246 124.629 119.288C113.121 117.878 102.46 134.455 98.0158 144.551C94.8553 151.72 97.4414 163.386 96.7741 170.894C83.2514 160.43 64.0002 134.32 63.7426 117C63.4955 99.2456 76.727 99.1091 86.3039 88.6876C84.8019 85.154 81.2897 81.72 77.931 79.537C72.6393 89.6087 63.252 98.1758 59.4322 109.066C56.6857 116.862 58.4786 122.668 59.68 129.982C46.3257 126.507 36.8282 109.923 33.6174 96.7578C29.0393 77.9891 43.6394 68.3916 54.149 55.668C43.4186 52.356 25.2654 60.0042 18.6357 69.9875C14.9044 75.6008 15.3845 83.0274 11.7483 88.6802C1.78061 72.3817 -7.18572 44.0361 8.82154 28.8198C22.5524 15.7674 48.7825 23.7179 64.4376 14.1104C92.635 -3.2175 116.11 -2.53367 135.749 5.21543L135.761 5.23416Z" fill="#7FA675"/>
</svg>
