<svg width="118" height="190" viewBox="0 0 118 190" fill="none" xmlns="http://www.w3.org/2000/svg">
<path d="M115.677 30.253C119.404 50.1067 116.89 57.9976 112.416 66.6969C102.574 58.5099 97.5332 56.3081 85.1599 52.3585C88.5911 55.6107 90.3176 62.2402 97.308 65.4774C105.139 69.1116 112.514 80.441 114.665 87.6061C117.045 95.5504 118.415 103.107 110.789 109.499C105.329 103.378 87.475 88.1333 80.3473 86.8553C82.8293 91.5656 87.8985 95.768 90.2517 100.584C93.3145 106.849 98.4493 104.961 103.113 115.272C107.207 124.299 104.357 141.191 97.3234 146.427C93.1699 136.793 83.9775 121.029 75.1545 114.095C71.486 122.098 83.705 142.409 82.3705 151.554C80.5395 163.999 70.0618 183.053 58.8926 189.77C54.4321 175.358 46.7994 165.296 46.476 153.713C46.0611 139.491 50.4115 119.901 58.243 107.151C52.2641 103.174 50.725 109.221 46.2257 113.754C40.8612 119.162 36.2315 126.59 35.1573 135.112C30.2097 124.43 30.864 103.924 35.8741 94.025C38.2767 89.2787 42.487 84.5066 47.2788 82.0846C51.51 79.9484 56.1081 80.922 58.8423 76.611C54.1291 68.1485 13.0665 91.7139 5.12455 97.0142C-0.0573296 87.4474 17.4143 61.3184 26.1926 55.0663C34.3852 49.2337 53.6861 44.3035 56.1961 40.2297C52.0446 33.5054 1.47189 53.5281 1.05401 53.0423C-1.30253 50.3014 16.1902 12.3479 32.3136 8.56726C40.7082 6.5985 52.7708 -0.573671 60.985 1.14368C63.9715 1.74809 67.4034 0.448607 70.4751 1.70786C76.5742 4.19116 87.7751 5.375 93.4225 8.65523C100.46 12.7429 114.094 21.8045 115.677 30.253Z" fill="#7FA675"/>
</svg>
