<svg width="223" height="60" viewBox="0 0 223 60" fill="none" xmlns="http://www.w3.org/2000/svg">
<mask id="path-1-outside-1_153_524" maskUnits="userSpaceOnUse" x="-1" y="-0.999023" width="226" height="62" fill="black">
<rect fill="white" x="-1" y="-0.999023" width="226" height="62"/>
<path d="M84.4 57.361C80.48 57.361 76.24 55.441 76.08 49.041C75.92 42.641 78.8 36.561 83.36 29.521C89.36 20.081 95.76 12.401 102.16 6.80098L101.84 6.56097C99.04 7.68097 95.2 10.401 90.24 15.281C83.2 22.241 76.8 30.721 73.6 34.721C61.68 49.281 54.56 57.281 48.16 57.281C44.4 57.281 43.36 53.361 44.08 47.601C44.8 41.681 47.12 34.401 50.24 26.881C52.48 21.521 55.84 15.201 59.36 9.44098L59.12 9.28097C54.72 12.561 47.44 23.041 38.72 35.441C30.72 46.801 21.28 59.521 9.44 59.521C2.88 59.521 0.24 55.201 0.8 50.641L1.28 50.401C2.88 53.601 6.24 54.881 9.68 54.881C18.08 54.881 26.72 47.201 37.52 32.321C48.16 17.921 54.96 8.56097 60.56 4.80097C55.52 4.72097 44.88 2.96097 36.32 2.96097C21.6 2.96097 14.4 7.52098 14.4 16.721C14.4 23.601 19.28 27.441 28.16 27.921L27.84 28.561C26.32 28.961 24.8 29.041 23.36 29.041C15.44 29.041 9.2 24.561 9.2 16.801C9.2 6.24097 18.56 0.160975 34.4 0.160975C45.92 0.160975 58.64 3.04097 69.36 3.44098L69.6 3.92097C66.72 6.00098 62.56 14.161 59.12 21.681C55.68 29.201 52.56 38.241 51.2 44.561C50.08 49.441 49.76 52.801 51.52 52.801C55.12 52.801 63.28 43.201 71.68 32.881C77.52 25.681 83.2 18.641 90 12.321C97.6 5.20097 104.24 1.68097 109.52 1.68097C111.44 1.68097 113.2 2.08097 114.08 2.72098L113.84 3.28097C111.6 4.00097 108.96 6.00098 106.16 8.96098C100.72 14.481 94.72 22.481 89.36 31.281C85.6 37.441 82.24 43.441 82.24 48.721C82.24 52.001 84.4 53.601 87.92 53.601C91.36 53.601 94 52.321 96.88 49.921L96.4 51.841C93.68 54.801 89.92 57.361 84.4 57.361ZM113.339 33.041C109.819 35.841 107.339 39.761 106.379 43.281C109.579 43.681 114.059 43.441 118.219 42.321C123.019 40.961 127.099 38.001 127.259 34.161C127.419 31.281 125.659 29.521 122.299 29.521C119.259 29.521 115.819 31.041 113.339 33.041ZM126.699 51.201C123.419 54.321 117.899 57.281 111.019 57.281C103.339 57.281 98.8594 54.321 98.8594 47.361C98.8594 41.521 102.299 35.921 107.179 32.321C111.579 28.961 117.099 27.281 121.979 27.281C127.099 27.281 131.019 29.201 131.019 33.921C130.939 38.881 125.339 42.481 119.739 43.841C114.859 45.041 109.899 45.121 106.059 44.801C105.819 45.361 105.739 46.721 105.739 47.281C105.739 52.321 108.539 54.481 113.659 54.481C118.619 54.481 123.339 52.481 127.099 49.361L126.699 51.201ZM164.111 56.961C160.351 56.961 157.711 55.201 157.791 51.521C157.791 47.921 159.711 44.721 161.951 41.281C164.111 37.921 165.951 35.921 165.951 33.841C165.951 32.081 164.591 30.961 161.551 30.961C157.391 30.961 151.231 33.601 145.871 38.561C143.951 41.121 141.231 45.761 139.791 49.041C138.271 52.641 137.311 55.201 136.991 56.961C134.991 56.881 132.591 56.081 132.671 52.561C132.831 48.881 135.071 44.161 138.351 39.041C141.391 34.241 144.991 30.081 147.391 28.561H151.951L152.431 29.361C150.431 31.601 148.511 34.001 147.471 35.601L147.551 35.761C152.271 31.761 159.071 28.001 165.471 28.001C170.671 28.001 172.591 30.721 172.511 33.681C172.511 36.241 170.831 38.401 168.351 42.001C165.951 45.681 163.791 48.481 163.791 50.561C163.791 52.561 164.991 53.521 167.471 53.521C170.271 53.521 172.911 52.001 175.471 49.921L174.911 51.681C172.991 53.681 169.311 56.961 164.111 56.961ZM210.619 56.961C206.779 56.961 204.459 54.881 204.459 50.881C204.459 50.161 204.539 49.681 204.619 49.201L204.539 49.121C200.459 52.961 194.059 56.961 187.179 56.961C181.259 56.961 179.339 53.601 179.339 50.161C179.339 47.281 180.779 43.441 183.339 39.441C186.299 34.641 190.539 30.001 192.779 28.561H197.579L198.139 29.281C195.499 32.241 192.539 35.681 189.019 41.681C186.859 45.361 185.659 48.241 185.659 50.481C185.659 52.561 187.019 54.161 190.299 54.161C194.219 54.161 200.059 51.761 205.019 47.041C205.739 44.641 207.259 41.521 208.619 39.201C211.659 34.321 215.259 30.081 217.419 28.561H222.379L222.939 29.281C220.619 32.081 218.219 35.041 215.179 39.761C211.899 44.881 210.219 47.681 210.219 50.481C210.219 52.481 211.419 53.521 213.819 53.521C216.459 53.521 219.099 52.001 221.579 49.921L221.099 51.681C219.259 53.681 215.819 56.961 210.619 56.961Z"/>
</mask>
<path d="M76.08 49.041L77.0797 49.016L76.08 49.041ZM83.36 29.521L84.1993 30.0646L84.204 30.0574L83.36 29.521ZM102.16 6.80098L102.819 7.55355L103.747 6.74118L102.76 6.00098L102.16 6.80098ZM101.84 6.56097L102.44 5.76098L101.99 5.42378L101.469 5.6325L101.84 6.56097ZM90.24 15.281L89.5387 14.5681L89.5369 14.5698L90.24 15.281ZM73.6 34.721L74.3738 35.3545L74.3809 35.3457L73.6 34.721ZM44.08 47.601L45.0723 47.725L45.0727 47.7217L44.08 47.601ZM50.24 26.881L49.3173 26.4954L49.3163 26.4978L50.24 26.881ZM59.36 9.44098L60.2133 9.96243L60.7146 9.14217L59.9147 8.60893L59.36 9.44098ZM59.12 9.28097L59.6747 8.44893L59.0878 8.05767L58.5223 8.47923L59.12 9.28097ZM38.72 35.441L39.5376 36.0168L39.538 36.0162L38.72 35.441ZM0.8 50.641L0.352787 49.7465L-0.12714 49.9865L-0.192543 50.5191L0.8 50.641ZM1.28 50.401L2.17443 49.9538L1.72721 49.0593L0.832787 49.5065L1.28 50.401ZM37.52 32.321L36.7157 31.7267L36.7107 31.7336L37.52 32.321ZM60.56 4.80097L61.1174 5.63119L63.7677 3.85176L60.5759 3.8011L60.56 4.80097ZM28.16 27.921L29.0544 28.3682L29.7362 27.0047L28.214 26.9224L28.16 27.921ZM27.84 28.561L28.0945 29.528L28.5321 29.4129L28.7344 29.0082L27.84 28.561ZM69.36 3.44098L70.2544 2.99376L69.9894 2.46377L69.3973 2.44167L69.36 3.44098ZM69.6 3.92097L70.1855 4.73165L70.8745 4.234L70.4944 3.47376L69.6 3.92097ZM59.12 21.681L60.0294 22.097L59.12 21.681ZM51.2 44.561L52.1748 44.7847L52.1776 44.7714L51.2 44.561ZM71.68 32.881L72.4556 33.5122L72.4566 33.5109L71.68 32.881ZM90 12.321L90.6808 13.0535L90.6837 13.0508L90 12.321ZM114.08 2.72098L114.999 3.1149L115.313 2.38153L114.668 1.91224L114.08 2.72098ZM113.84 3.28097L114.146 4.233L114.58 4.0936L114.759 3.6749L113.84 3.28097ZM106.16 8.96098L106.872 9.6629L106.879 9.65561L106.886 9.64818L106.16 8.96098ZM89.36 31.281L90.2136 31.802L90.2141 31.8012L89.36 31.281ZM96.88 49.921L97.8501 50.1635L98.5931 47.1917L96.2398 49.1528L96.88 49.921ZM96.4 51.841L97.1363 52.5176L97.3084 52.3303L97.3701 52.0835L96.4 51.841ZM84.4 56.361C82.5852 56.361 80.7971 55.9145 79.4619 54.8259C78.1581 53.763 77.1538 51.9803 77.0797 49.016L75.0803 49.066C75.1662 52.5017 76.3619 54.879 78.1981 56.376C80.0029 57.8474 82.2948 58.361 84.4 58.361V56.361ZM77.0797 49.016C76.9277 42.9368 79.6579 37.0759 84.1993 30.0646L82.5207 28.9773C77.9421 36.046 74.9123 42.3451 75.0803 49.066L77.0797 49.016ZM84.204 30.0574C90.1657 20.6775 96.5065 13.0766 102.819 7.55355L101.502 6.0484C95.0135 11.7254 88.5543 19.4844 82.516 28.9846L84.204 30.0574ZM102.76 6.00098L102.44 5.76098L101.24 7.36097L101.56 7.60097L102.76 6.00098ZM101.469 5.6325C98.4821 6.82711 94.528 9.65932 89.5387 14.5681L90.9413 15.9938C95.872 11.1426 99.5979 8.53484 102.211 7.48945L101.469 5.6325ZM89.5369 14.5698C82.4436 21.5826 75.9943 30.1274 72.8191 34.0963L74.3809 35.3457C77.6057 31.3146 83.9564 22.8994 90.9431 15.9921L89.5369 14.5698ZM72.8262 34.0875C66.8583 41.3772 62.1395 46.9646 58.1256 50.7318C54.081 54.5281 50.9489 56.281 48.16 56.281V58.281C51.7711 58.281 55.3991 56.0339 59.4944 52.1901C63.6205 48.3174 68.4217 42.6247 74.3738 35.3544L72.8262 34.0875ZM48.16 56.281C47.402 56.281 46.8496 56.0869 46.4319 55.7761C46.0068 55.4599 45.6462 54.9667 45.3759 54.2486C44.8225 52.7787 44.7185 50.5549 45.0723 47.725L43.0877 47.4769C42.7215 50.4071 42.7775 53.0232 43.5041 54.9533C43.8738 55.9353 44.4332 56.782 45.2381 57.3808C46.0504 57.9851 47.038 58.281 48.16 58.281V56.281ZM45.0727 47.7217C45.7765 41.9346 48.0569 34.7523 51.1637 27.2642L49.3163 26.4978C46.1831 34.0496 43.8235 41.4273 43.0873 47.4802L45.0727 47.7217ZM51.1627 27.2666C53.3776 21.9666 56.7113 15.693 60.2133 9.96243L58.5067 8.91953C54.9687 14.7089 51.5824 21.0753 49.3173 26.4954L51.1627 27.2666ZM59.9147 8.60893L59.6747 8.44893L58.5653 10.113L58.8053 10.273L59.9147 8.60893ZM58.5223 8.47923C56.1906 10.2175 53.1906 13.7734 49.7421 18.3382C46.2692 22.9353 42.2571 28.6727 37.902 34.8657L39.538 36.0162C43.9029 29.8092 47.8908 24.1067 51.3379 19.5438C54.8094 14.9485 57.6494 11.6245 59.7177 10.0827L58.5223 8.47923ZM37.9024 34.8652C33.897 40.5528 29.5893 46.4938 24.8311 51.0161C20.0686 55.5424 14.9854 58.521 9.44 58.521V60.521C15.7346 60.521 21.2914 57.1395 26.2089 52.4658C31.1307 47.7881 35.543 41.6891 39.5376 36.0168L37.9024 34.8652ZM9.44 58.521C6.38698 58.521 4.39147 57.5236 3.21023 56.1413C2.01753 54.7456 1.53954 52.823 1.79254 50.7629L-0.192543 50.5191C-0.49954 53.0189 0.0624738 55.5363 1.68977 57.4406C3.32853 59.3583 5.93302 60.521 9.44 60.521V58.521ZM1.24721 51.5354L1.72721 51.2954L0.832787 49.5065L0.352787 49.7465L1.24721 51.5354ZM0.385573 50.8482C2.21818 54.5134 6.02698 55.881 9.68 55.881V53.881C6.45302 53.881 3.54182 52.6885 2.17443 49.9538L0.385573 50.8482ZM9.68 55.881C14.2017 55.881 18.6815 53.811 23.3382 49.9509C27.9935 46.0918 32.9112 40.3733 38.3293 32.9084L36.7107 31.7336C31.3288 39.1486 26.5265 44.7101 22.0618 48.4111C17.5985 52.111 13.5583 53.881 9.68 53.881V55.881ZM38.3243 32.9152C43.6512 25.7059 47.9948 19.7884 51.7074 15.2C55.4319 10.5968 58.452 7.42081 61.1174 5.63119L60.0026 3.97075C57.068 5.94113 53.8881 9.32515 50.1526 13.942C46.4052 18.5735 42.0288 24.5361 36.7157 31.7267L38.3243 32.9152ZM60.5759 3.8011C58.1131 3.76201 54.2617 3.31029 49.8627 2.85626C45.5028 2.40627 40.6569 1.96097 36.32 1.96097V3.96097C40.5431 3.96097 45.2972 4.39567 49.6573 4.84569C53.9783 5.29166 57.9669 5.75994 60.5441 5.80085L60.5759 3.8011ZM36.32 1.96097C28.8901 1.96097 23.1841 3.10572 19.3075 5.54455C15.3505 8.03396 13.4 11.8091 13.4 16.721H15.4C15.4 12.4328 17.0495 9.32799 20.3725 7.2374C23.7759 5.09623 29.0299 3.96097 36.32 3.96097V1.96097ZM13.4 16.721C13.4 20.424 14.7278 23.406 17.3221 25.4992C19.8771 27.5608 23.5524 28.6734 28.106 28.9195L28.214 26.9224C23.8876 26.6886 20.6829 25.6411 18.5779 23.9427C16.5122 22.2759 15.4 19.898 15.4 16.721H13.4ZM27.2656 27.4738L26.9456 28.1138L28.7344 29.0082L29.0544 28.3682L27.2656 27.4738ZM27.5855 27.5939C26.1885 27.9615 24.7685 28.041 23.36 28.041V30.041C24.8315 30.041 26.4515 29.9604 28.0945 29.528L27.5855 27.5939ZM23.36 28.041C19.5794 28.041 16.2788 26.9713 13.9439 25.0576C11.6297 23.1608 10.2 20.3866 10.2 16.801H8.2C8.2 20.9753 9.89029 24.3211 12.6761 26.6044C15.4412 28.8707 19.2206 30.041 23.36 30.041V28.041ZM10.2 16.801C10.2 11.867 12.3627 8.0169 16.4093 5.35658C20.505 2.66406 26.5862 1.16098 34.4 1.16098V-0.839025C26.3738 -0.839025 19.855 0.697888 15.3107 3.68537C10.7173 6.70505 8.2 11.1749 8.2 16.801H10.2ZM34.4 1.16098C40.0877 1.16098 46.0888 1.87234 52.0519 2.64273C57.9895 3.40984 63.9055 4.23814 69.3227 4.44028L69.3973 2.44167C64.0945 2.2438 58.2905 1.43211 52.3081 0.659217C46.3512 -0.110388 40.2323 -0.839025 34.4 -0.839025V1.16098ZM68.4656 3.88819L68.7056 4.36819L70.4944 3.47376L70.2544 2.99376L68.4656 3.88819ZM69.0145 3.1103C68.1625 3.72565 67.2873 4.73055 66.4206 5.93042C65.5422 7.14656 64.6244 8.63136 63.6993 10.2692C61.8487 13.5456 59.935 17.4954 58.2106 21.265L60.0294 22.097C61.745 18.3466 63.6313 14.4563 65.4407 11.2528C66.3456 9.6506 67.2229 8.23539 68.0419 7.10153C68.8727 5.9514 69.5975 5.1563 70.1855 4.73165L69.0145 3.1103ZM58.2106 21.265C54.7479 28.8347 51.6009 37.9444 50.2224 44.3506L52.1776 44.7714C53.5191 38.5376 56.6121 29.5672 60.0294 22.097L58.2106 21.265ZM50.2253 44.3373C49.665 46.7789 49.28 48.9368 49.28 50.511C49.28 51.2847 49.3703 52.0499 49.6796 52.6549C49.8422 52.973 50.0782 53.2719 50.4137 53.4879C50.7533 53.7066 51.1343 53.801 51.52 53.801V51.801C51.4658 51.801 51.4717 51.7904 51.4963 51.8063C51.5168 51.8194 51.4978 51.8177 51.4604 51.7446C51.3697 51.567 51.28 51.1872 51.28 50.511C51.28 49.1852 51.615 47.223 52.1747 44.7847L50.2253 44.3373ZM51.52 53.801C52.1799 53.801 52.8566 53.5851 53.5109 53.2685C54.1741 52.9475 54.8785 52.4914 55.6109 51.9372C57.0751 50.8292 58.7373 49.2632 60.5216 47.4033C64.0936 43.6799 68.2575 38.6699 72.4556 33.5122L70.9044 32.2497C66.7025 37.4121 62.5864 42.362 59.0784 46.0187C57.3228 47.8487 55.7449 49.3277 54.4041 50.3423C53.734 50.8493 53.1446 51.2238 52.6397 51.4682C52.1259 51.7168 51.7602 51.801 51.52 51.801V53.801ZM72.4566 33.5109C78.3052 26.3004 83.9413 19.3172 90.6808 13.0535L89.3192 11.5885C82.4587 17.9647 76.7348 25.0615 70.9034 32.251L72.4566 33.5109ZM90.6837 13.0508C98.2423 5.96953 104.639 2.68097 109.52 2.68097V0.680975C103.841 0.680975 96.9577 4.43241 89.3163 11.5912L90.6837 13.0508ZM109.52 2.68097C110.414 2.68097 111.259 2.77449 111.968 2.93599C112.694 3.10134 113.206 3.32197 113.492 3.52971L114.668 1.91224C114.074 1.47998 113.266 1.18061 112.412 0.985963C111.541 0.78746 110.546 0.680975 109.52 0.680975V2.68097ZM113.161 2.32705L112.921 2.88705L114.759 3.6749L114.999 3.1149L113.161 2.32705ZM113.534 2.32894C111.048 3.12818 108.265 5.2809 105.434 8.27378L106.886 9.64818C109.655 6.72106 112.153 4.87377 114.146 4.233L113.534 2.32894ZM105.448 8.25905C99.9381 13.8497 93.8927 21.9169 88.506 30.7608L90.2141 31.8012C95.5474 23.045 101.502 15.1123 106.872 9.6629L105.448 8.25905ZM88.5065 30.76C86.6251 33.8422 84.8154 36.9295 83.4771 39.9228C82.1411 42.9111 81.24 45.8797 81.24 48.721H83.24C83.24 46.2822 84.019 43.6109 85.3029 40.7391C86.5846 37.8725 88.3349 34.8797 90.2136 31.802L88.5065 30.76ZM81.24 48.721C81.24 50.5956 81.8682 52.1247 83.1229 53.1618C84.3462 54.1729 86.0269 54.601 87.92 54.601V52.601C86.2931 52.601 85.1338 52.2291 84.3971 51.6202C83.6918 51.0373 83.24 50.1264 83.24 48.721H81.24ZM87.92 54.601C91.668 54.601 94.527 53.1835 97.5202 50.6892L96.2398 49.1528C93.473 51.4585 91.052 52.601 87.92 52.601V54.601ZM95.9099 49.6784L95.4299 51.5984L97.3701 52.0835L97.8501 50.1635L95.9099 49.6784ZM95.6637 51.1644C93.07 53.9869 89.5588 56.361 84.4 56.361V58.361C90.2812 58.361 94.29 55.6151 97.1363 52.5176L95.6637 51.1644ZM113.339 33.041L113.962 33.8236L113.967 33.8194L113.339 33.041ZM106.379 43.281L105.415 43.0179L105.111 44.1302L106.255 44.2733L106.379 43.281ZM118.219 42.321L118.479 43.2867L118.492 43.2831L118.219 42.321ZM127.259 34.161L126.261 34.1055L126.26 34.1193L127.259 34.161ZM126.699 51.201L127.389 51.9255L127.611 51.7137L127.677 51.4134L126.699 51.201ZM107.179 32.321L107.773 33.1257L107.78 33.1208L107.786 33.1157L107.179 32.321ZM131.019 33.921L132.019 33.9371L132.019 33.929V33.921H131.019ZM119.739 43.841L119.503 42.8692L119.501 42.8699L119.739 43.841ZM106.059 44.801L106.142 43.8044L105.424 43.7446L105.14 44.4071L106.059 44.801ZM127.099 49.361L128.077 49.5734L128.693 46.7395L126.461 48.5914L127.099 49.361ZM112.717 32.2584C109.036 35.1859 106.433 39.2854 105.415 43.0179L107.344 43.5441C108.246 40.2366 110.602 36.496 113.962 33.8236L112.717 32.2584ZM106.255 44.2733C109.589 44.69 114.2 44.4388 118.479 43.2866L117.959 41.3554C113.919 42.4431 109.569 42.672 106.503 42.2887L106.255 44.2733ZM118.492 43.2831C120.992 42.5748 123.351 41.4384 125.126 39.9338C126.901 38.429 128.163 36.4893 128.259 34.2026L126.26 34.1193C126.196 35.6726 125.337 37.1329 123.833 38.4081C122.328 39.6835 120.247 40.7072 117.947 41.3588L118.492 43.2831ZM128.258 34.2164C128.35 32.5571 127.889 31.0846 126.789 30.0368C125.704 29.0039 124.142 28.521 122.299 28.521V30.521C123.817 30.521 124.814 30.9181 125.41 31.4851C125.99 32.0374 126.329 32.8848 126.261 34.1055L128.258 34.2164ZM122.299 28.521C118.969 28.521 115.315 30.1634 112.712 32.2626L113.967 33.8194C116.324 31.9186 119.549 30.521 122.299 30.521V28.521ZM126.01 50.4764C122.892 53.4429 117.611 56.281 111.019 56.281V58.281C118.188 58.281 123.947 55.1991 127.389 51.9255L126.01 50.4764ZM111.019 56.281C107.28 56.281 104.5 55.5555 102.671 54.1402C100.892 52.7628 99.8594 50.6097 99.8594 47.361H97.8594C97.8594 51.0723 99.0668 53.8792 101.447 55.7218C103.779 57.5265 107.079 58.281 111.019 58.281V56.281ZM99.8594 47.361C99.8594 41.9099 103.085 36.584 107.773 33.1257L106.586 31.5163C101.514 35.258 97.8594 41.1321 97.8594 47.361H99.8594ZM107.786 33.1157C112.005 29.8945 117.309 28.281 121.979 28.281V26.281C116.89 26.281 111.154 28.0274 106.572 31.5262L107.786 33.1157ZM121.979 28.281C124.44 28.281 126.477 28.7464 127.868 29.6654C129.201 30.5454 130.019 31.8879 130.019 33.921H132.019C132.019 31.2341 130.878 29.2566 128.971 27.9966C127.122 26.7755 124.639 26.281 121.979 26.281V28.281ZM130.02 33.9048C129.986 35.9821 128.798 37.8694 126.824 39.4505C124.853 41.0293 122.195 42.2154 119.503 42.8692L119.975 44.8127C122.883 44.1065 125.826 42.8126 128.075 41.0115C130.321 39.2126 131.973 36.8198 132.019 33.9371L130.02 33.9048ZM119.501 42.8699C114.754 44.0371 109.908 44.1182 106.142 43.8044L105.976 45.7975C109.891 46.1237 114.965 46.0449 119.978 44.812L119.501 42.8699ZM105.14 44.4071C104.954 44.8426 104.864 45.4627 104.815 45.9374C104.761 46.4513 104.739 46.9659 104.739 47.281H106.739C106.739 47.0361 106.758 46.5907 106.804 46.1446C106.855 45.6592 106.925 45.3194 106.979 45.1949L105.14 44.4071ZM104.739 47.281C104.739 49.9844 105.496 52.1046 107.122 53.5243C108.721 54.9202 110.984 55.481 113.659 55.481V53.481C111.215 53.481 109.518 52.9617 108.437 52.0177C107.383 51.0973 106.739 49.6175 106.739 47.281H104.739ZM113.659 55.481C118.89 55.481 123.829 53.3738 127.738 50.1305L126.461 48.5914C122.849 51.5882 118.349 53.481 113.659 53.481V55.481ZM126.122 49.1485L125.722 50.9885L127.677 51.4134L128.077 49.5734L126.122 49.1485ZM157.791 51.521L158.79 51.5427L158.791 51.5318V51.521H157.791ZM161.951 41.281L162.789 41.8267L162.792 41.8217L161.951 41.281ZM145.871 38.561L145.191 37.827L145.125 37.8885L145.071 37.961L145.871 38.561ZM139.791 49.041L138.875 48.639L138.872 48.6455L138.869 48.652L139.791 49.041ZM136.991 56.961L136.951 57.9602L137.819 57.9949L137.975 57.1399L136.991 56.961ZM132.671 52.561L131.672 52.5175L131.671 52.5279L131.671 52.5383L132.671 52.561ZM138.351 39.041L139.193 39.5804L139.195 39.576L138.351 39.041ZM147.391 28.561V27.561H147.101L146.856 27.7162L147.391 28.561ZM151.951 28.561L152.808 28.0465L152.517 27.561H151.951V28.561ZM152.431 29.361L153.177 30.027L153.667 29.4778L153.288 28.8465L152.431 29.361ZM147.471 35.601L146.632 35.056L146.32 35.5361L146.576 36.0482L147.471 35.601ZM147.551 35.761L146.656 36.2082L147.226 37.3472L148.197 36.5239L147.551 35.761ZM172.511 33.681L171.511 33.654L171.511 33.6675V33.681H172.511ZM168.351 42.001L167.527 41.4337L167.52 41.4441L167.513 41.4547L168.351 42.001ZM175.471 49.921L176.424 50.2242L177.439 47.0334L174.84 49.1449L175.471 49.921ZM174.911 51.681L175.632 52.3735L175.793 52.2058L175.864 51.9842L174.911 51.681ZM164.111 55.961C162.368 55.961 161.02 55.551 160.137 54.8415C159.291 54.1615 158.756 53.1151 158.79 51.5427L156.791 51.4992C156.745 53.6069 157.49 55.2805 158.884 56.4005C160.241 57.4909 162.093 57.961 164.111 57.961V55.961ZM158.791 51.521C158.791 48.2602 160.528 45.299 162.789 41.8266L161.113 40.7353C158.894 44.143 156.791 47.5817 156.791 51.521H158.791ZM162.792 41.8217C163.322 40.9968 163.833 40.2542 164.311 39.5601C164.784 38.8722 165.231 38.2215 165.611 37.6071C166.36 36.3957 166.951 35.1741 166.951 33.841H164.951C164.951 34.5879 164.621 35.4063 163.91 36.5549C163.56 37.1204 163.142 37.7298 162.663 38.4268C162.188 39.1177 161.659 39.8851 161.109 40.7402L162.792 41.8217ZM166.951 33.841C166.951 32.6657 166.476 31.6242 165.461 30.9196C164.503 30.2543 163.167 29.961 161.551 29.961V31.961C162.974 31.961 163.838 32.2276 164.32 32.5623C164.746 32.8577 164.951 33.2562 164.951 33.841H166.951ZM161.551 29.961C157.053 29.961 150.662 32.7645 145.191 37.827L146.55 39.2949C151.799 34.4374 157.728 31.961 161.551 31.961V29.961ZM145.071 37.961C143.103 40.5839 140.345 45.2906 138.875 48.639L140.706 49.443C142.116 46.2313 144.798 41.658 146.671 39.161L145.071 37.961ZM138.869 48.652C137.357 52.235 136.35 54.8957 136.007 56.7821L137.975 57.1399C138.272 55.5063 139.185 53.0469 140.712 49.4299L138.869 48.652ZM137.031 55.9618C136.119 55.9253 135.264 55.7253 134.663 55.2601C134.119 54.8391 133.636 54.0878 133.67 52.5837L131.671 52.5383C131.625 54.5542 132.303 55.9628 133.439 56.8418C134.518 57.6767 135.863 57.9167 136.951 57.9602L137.031 55.9618ZM133.67 52.6044C133.817 49.2154 135.917 44.6943 139.193 39.5804L137.509 38.5015C134.225 43.6276 131.844 48.5465 131.672 52.5175L133.67 52.6044ZM139.195 39.576C140.691 37.2139 142.322 35.014 143.868 33.2245C145.426 31.4191 146.85 30.087 147.926 29.4058L146.856 27.7162C145.531 28.555 143.955 30.0629 142.354 31.9175C140.739 33.7879 139.05 36.068 137.506 38.5059L139.195 39.576ZM147.391 29.561H151.951V27.561H147.391V29.561ZM151.093 29.0755L151.573 29.8755L153.288 28.8465L152.808 28.0465L151.093 29.0755ZM151.685 28.695C149.671 30.9505 147.712 33.394 146.632 35.056L148.309 36.146C149.309 34.608 151.19 32.2514 153.177 30.027L151.685 28.695ZM146.576 36.0482L146.656 36.2082L148.445 35.3138L148.365 35.1538L146.576 36.0482ZM148.197 36.5239C152.839 32.5904 159.414 29.001 165.471 29.001V27.001C158.728 27.001 151.703 30.9315 146.904 34.9981L148.197 36.5239ZM165.471 29.001C167.904 29.001 169.407 29.636 170.287 30.4605C171.159 31.2779 171.545 32.4006 171.511 33.654L173.51 33.708C173.556 32.0014 173.023 30.284 171.655 29.0014C170.294 27.7259 168.237 27.001 165.471 27.001V29.001ZM171.511 33.681C171.511 34.7251 171.173 35.7329 170.487 36.9642C169.787 38.2199 168.79 39.5998 167.527 41.4337L169.174 42.5683C170.391 40.8021 171.474 39.3021 172.234 37.9378C173.008 36.5491 173.511 35.1968 173.511 33.681H171.511ZM167.513 41.4547C166.343 43.249 165.164 44.9287 164.31 46.3718C163.468 47.7951 162.791 49.2236 162.791 50.561H164.791C164.791 49.8183 165.193 48.8068 166.031 47.3901C166.858 45.9932 167.958 44.433 169.188 42.5472L167.513 41.4547ZM162.791 50.561C162.791 51.7696 163.163 52.8386 164.074 53.5706C164.941 54.2668 166.131 54.521 167.471 54.521V52.521C166.33 52.521 165.68 52.2951 165.327 52.0114C165.018 51.7633 164.791 51.3524 164.791 50.561H162.791ZM167.471 54.521C170.629 54.521 173.498 52.8119 176.101 50.6971L174.84 49.1449C172.323 51.1901 169.912 52.521 167.471 52.521V54.521ZM174.518 49.6178L173.958 51.3778L175.864 51.9842L176.424 50.2242L174.518 49.6178ZM174.189 50.9884C172.307 52.9496 168.878 55.961 164.111 55.961V57.961C169.743 57.961 173.675 54.4123 175.632 52.3735L174.189 50.9884ZM204.619 49.201L205.606 49.3654L205.69 48.8578L205.326 48.4939L204.619 49.201ZM204.539 49.121L205.246 48.4139L204.56 47.7279L203.854 48.3928L204.539 49.121ZM183.339 39.441L184.182 39.98L184.186 39.973L184.191 39.9659L183.339 39.441ZM192.779 28.561V27.561H192.486L192.239 27.7198L192.779 28.561ZM197.579 28.561L198.369 27.947L198.068 27.561H197.579V28.561ZM198.139 29.281L198.886 29.9466L199.44 29.3248L198.929 28.667L198.139 29.281ZM189.019 41.681L189.882 42.1872L189.882 42.187L189.019 41.681ZM205.019 47.041L205.709 47.7654L205.901 47.5825L205.977 47.3283L205.019 47.041ZM208.619 39.201L207.771 38.6722L207.763 38.6836L207.757 38.6953L208.619 39.201ZM217.419 28.561V27.561H217.103L216.844 27.7432L217.419 28.561ZM222.379 28.561L223.169 27.947L222.868 27.561H222.379V28.561ZM222.939 29.281L223.709 29.919L224.222 29.3008L223.729 28.667L222.939 29.281ZM215.179 39.761L214.339 39.2195L214.337 39.2215L215.179 39.761ZM221.579 49.921L222.544 50.1841L223.385 47.1016L220.937 49.1548L221.579 49.921ZM221.099 51.681L221.835 52.358L222 52.1789L222.064 51.9441L221.099 51.681ZM210.619 55.961C208.873 55.961 207.613 55.4897 206.793 54.7004C205.979 53.9172 205.459 52.6876 205.459 50.881H203.459C203.459 53.0743 204.1 54.8847 205.406 56.1415C206.706 57.3922 208.526 57.961 210.619 57.961V55.961ZM205.459 50.881C205.459 50.2472 205.528 49.8344 205.606 49.3654L203.633 49.0366C203.551 49.5276 203.459 50.0747 203.459 50.881H205.459ZM205.326 48.4939L205.246 48.4139L203.832 49.8281L203.912 49.9081L205.326 48.4939ZM203.854 48.3928C199.862 52.1503 193.696 55.961 187.179 55.961V57.961C194.423 57.961 201.057 53.7717 205.225 49.8492L203.854 48.3928ZM187.179 55.961C184.409 55.961 182.742 55.1796 181.761 54.1582C180.769 53.1265 180.339 51.7053 180.339 50.161H178.339C178.339 52.0567 178.869 54.0354 180.318 55.5437C181.777 57.0624 184.03 57.961 187.179 57.961V55.961ZM180.339 50.161C180.339 47.5606 181.663 43.915 184.182 39.98L182.497 38.9019C179.895 42.967 178.339 47.0013 178.339 50.161H180.339ZM184.191 39.9659C185.637 37.6203 187.402 35.3055 189.08 33.4022C190.774 31.48 192.32 30.0451 193.32 29.4022L192.239 27.7198C190.999 28.5168 189.305 30.122 187.579 32.0797C185.837 34.0564 184.002 36.4617 182.488 38.9161L184.191 39.9659ZM192.779 29.561H197.579V27.561H192.779V29.561ZM196.79 29.1749L197.35 29.8949L198.929 28.667L198.369 27.947L196.79 29.1749ZM197.393 28.6154C194.731 31.6 191.724 35.0954 188.157 41.175L189.882 42.187C193.355 36.2666 196.268 32.8819 198.886 29.9466L197.393 28.6154ZM188.157 41.1748C185.996 44.8562 184.659 47.9447 184.659 50.481H186.659C186.659 48.5373 187.723 45.8657 189.882 42.1872L188.157 41.1748ZM184.659 50.481C184.659 51.7462 185.08 52.9643 186.089 53.8517C187.081 54.7245 188.509 55.161 190.299 55.161V53.161C188.81 53.161 187.918 52.7974 187.41 52.3503C186.918 51.9176 186.659 51.2958 186.659 50.481H184.659ZM190.299 55.161C194.547 55.161 200.622 52.606 205.709 47.7654L204.33 46.3166C199.497 50.9159 193.891 53.161 190.299 53.161V55.161ZM205.977 47.3283C206.665 45.0346 208.143 41.9916 209.482 39.7067L207.757 38.6953C206.376 41.0503 204.813 44.2473 204.062 46.7536L205.977 47.3283ZM209.468 39.7297C210.965 37.3274 212.598 35.0848 214.118 33.2612C215.651 31.4212 217.024 30.0621 217.995 29.3788L216.844 27.7432C215.655 28.5799 214.148 30.1008 212.581 31.9808C211.001 33.8772 209.314 36.1945 207.771 38.6722L209.468 39.7297ZM217.419 29.561H222.379V27.561H217.419V29.561ZM221.59 29.1749L222.15 29.8949L223.729 28.667L223.169 27.947L221.59 29.1749ZM222.169 28.643C219.839 31.456 217.41 34.451 214.339 39.2195L216.02 40.3025C219.029 35.631 221.4 32.7059 223.709 29.919L222.169 28.643ZM214.337 39.2215C212.704 41.7717 211.431 43.8001 210.572 45.5501C209.706 47.3123 209.219 48.8692 209.219 50.481H211.219C211.219 49.2927 211.572 48.0497 212.367 46.4318C213.167 44.8018 214.375 42.8703 216.021 40.3004L214.337 39.2215ZM209.219 50.481C209.219 51.687 209.589 52.7628 210.472 53.5129C211.324 54.2375 212.497 54.521 213.819 54.521V52.521C212.742 52.521 212.115 52.2845 211.767 51.989C211.449 51.7191 211.219 51.2749 211.219 50.481H209.219ZM213.819 54.521C216.825 54.521 219.697 52.8047 222.222 50.6872L220.937 49.1548C218.502 51.1973 216.094 52.521 213.819 52.521V54.521ZM220.615 49.6579L220.135 51.4179L222.064 51.9441L222.544 50.1841L220.615 49.6579ZM220.363 51.0039C218.556 52.9685 215.371 55.961 210.619 55.961V57.961C216.268 57.961 219.963 54.3935 221.835 52.358L220.363 51.0039Z" fill="#FEFEFD" mask="url(#path-1-outside-1_153_524)"/>
</svg>
