<svg width="226" height="62" viewBox="0 0 226 62" fill="none" xmlns="http://www.w3.org/2000/svg">
<g filter="url(#filter0_i_153_524)">
<mask id="path-1-outside-1_153_524" maskUnits="userSpaceOnUse" x="0" y="0.000976562" width="226" height="62" fill="black">
<rect fill="white" y="0.000976562" width="226" height="62"/>
<path d="M85.4 58.361C81.48 58.361 77.24 56.441 77.08 50.041C76.92 43.641 79.8 37.561 84.36 30.521C90.36 21.081 96.76 13.401 103.16 7.80098L102.84 7.56097C100.04 8.68097 96.2 11.401 91.24 16.281C84.2 23.241 77.8 31.721 74.6 35.721C62.68 50.281 55.56 58.281 49.16 58.281C45.4 58.281 44.36 54.361 45.08 48.601C45.8 42.681 48.12 35.401 51.24 27.881C53.48 22.521 56.84 16.201 60.36 10.441L60.12 10.281C55.72 13.561 48.44 24.041 39.72 36.441C31.72 47.801 22.28 60.521 10.44 60.521C3.88 60.521 1.24 56.201 1.8 51.641L2.28 51.401C3.88 54.601 7.24 55.881 10.68 55.881C19.08 55.881 27.72 48.201 38.52 33.321C49.16 18.921 55.96 9.56097 61.56 5.80097C56.52 5.72097 45.88 3.96097 37.32 3.96097C22.6 3.96097 15.4 8.52098 15.4 17.721C15.4 24.601 20.28 28.441 29.16 28.921L28.84 29.561C27.32 29.961 25.8 30.041 24.36 30.041C16.44 30.041 10.2 25.561 10.2 17.801C10.2 7.24097 19.56 1.16098 35.4 1.16098C46.92 1.16098 59.64 4.04097 70.36 4.44098L70.6 4.92097C67.72 7.00098 63.56 15.161 60.12 22.681C56.68 30.201 53.56 39.241 52.2 45.561C51.08 50.441 50.76 53.801 52.52 53.801C56.12 53.801 64.28 44.201 72.68 33.881C78.52 26.681 84.2 19.641 91 13.321C98.6 6.20097 105.24 2.68097 110.52 2.68097C112.44 2.68097 114.2 3.08097 115.08 3.72098L114.84 4.28097C112.6 5.00097 109.96 7.00098 107.16 9.96098C101.72 15.481 95.72 23.481 90.36 32.281C86.6 38.441 83.24 44.441 83.24 49.721C83.24 53.001 85.4 54.601 88.92 54.601C92.36 54.601 95 53.321 97.88 50.921L97.4 52.841C94.68 55.801 90.92 58.361 85.4 58.361ZM114.339 34.041C110.819 36.841 108.339 40.761 107.379 44.281C110.579 44.681 115.059 44.441 119.219 43.321C124.019 41.961 128.099 39.001 128.259 35.161C128.419 32.281 126.659 30.521 123.299 30.521C120.259 30.521 116.819 32.041 114.339 34.041ZM127.699 52.201C124.419 55.321 118.899 58.281 112.019 58.281C104.339 58.281 99.8594 55.321 99.8594 48.361C99.8594 42.521 103.299 36.921 108.179 33.321C112.579 29.961 118.099 28.281 122.979 28.281C128.099 28.281 132.019 30.201 132.019 34.921C131.939 39.881 126.339 43.481 120.739 44.841C115.859 46.041 110.899 46.121 107.059 45.801C106.819 46.361 106.739 47.721 106.739 48.281C106.739 53.321 109.539 55.481 114.659 55.481C119.619 55.481 124.339 53.481 128.099 50.361L127.699 52.201ZM165.111 57.961C161.351 57.961 158.711 56.201 158.791 52.521C158.791 48.921 160.711 45.721 162.951 42.281C165.111 38.921 166.951 36.921 166.951 34.841C166.951 33.081 165.591 31.961 162.551 31.961C158.391 31.961 152.231 34.601 146.871 39.561C144.951 42.121 142.231 46.761 140.791 50.041C139.271 53.641 138.311 56.201 137.991 57.961C135.991 57.881 133.591 57.081 133.671 53.561C133.831 49.881 136.071 45.161 139.351 40.041C142.391 35.241 145.991 31.081 148.391 29.561H152.951L153.431 30.361C151.431 32.601 149.511 35.001 148.471 36.601L148.551 36.761C153.271 32.761 160.071 29.001 166.471 29.001C171.671 29.001 173.591 31.721 173.511 34.681C173.511 37.241 171.831 39.401 169.351 43.001C166.951 46.681 164.791 49.481 164.791 51.561C164.791 53.561 165.991 54.521 168.471 54.521C171.271 54.521 173.911 53.001 176.471 50.921L175.911 52.681C173.991 54.681 170.311 57.961 165.111 57.961ZM211.619 57.961C207.779 57.961 205.459 55.881 205.459 51.881C205.459 51.161 205.539 50.681 205.619 50.201L205.539 50.121C201.459 53.961 195.059 57.961 188.179 57.961C182.259 57.961 180.339 54.601 180.339 51.161C180.339 48.281 181.779 44.441 184.339 40.441C187.299 35.641 191.539 31.001 193.779 29.561H198.579L199.139 30.281C196.499 33.241 193.539 36.681 190.019 42.681C187.859 46.361 186.659 49.241 186.659 51.481C186.659 53.561 188.019 55.161 191.299 55.161C195.219 55.161 201.059 52.761 206.019 48.041C206.739 45.641 208.259 42.521 209.619 40.201C212.659 35.321 216.259 31.081 218.419 29.561H223.379L223.939 30.281C221.619 33.081 219.219 36.041 216.179 40.761C212.899 45.881 211.219 48.681 211.219 51.481C211.219 53.481 212.419 54.521 214.819 54.521C217.459 54.521 220.099 53.001 222.579 50.921L222.099 52.681C220.259 54.681 216.819 57.961 211.619 57.961Z"/>
</mask>
<path d="M77.08 50.041L78.0797 50.016L77.08 50.041ZM84.36 30.521L85.1993 31.0646L85.204 31.0574L84.36 30.521ZM103.16 7.80098L103.819 8.55355L104.747 7.74118L103.76 7.00098L103.16 7.80098ZM102.84 7.56097L103.44 6.76098L102.99 6.42378L102.469 6.6325L102.84 7.56097ZM91.24 16.281L90.5387 15.5681L90.5369 15.5698L91.24 16.281ZM74.6 35.721L75.3738 36.3545L75.3809 36.3457L74.6 35.721ZM45.08 48.601L46.0723 48.725L46.0727 48.7217L45.08 48.601ZM51.24 27.881L50.3173 27.4954L50.3163 27.4978L51.24 27.881ZM60.36 10.441L61.2133 10.9624L61.7146 10.1422L60.9147 9.60893L60.36 10.441ZM60.12 10.281L60.6747 9.44893L60.0878 9.05767L59.5223 9.47923L60.12 10.281ZM39.72 36.441L40.5376 37.0168L40.538 37.0162L39.72 36.441ZM1.8 51.641L1.35279 50.7465L0.87286 50.9865L0.807457 51.5191L1.8 51.641ZM2.28 51.401L3.17443 50.9538L2.72721 50.0593L1.83279 50.5065L2.28 51.401ZM38.52 33.321L37.7157 32.7267L37.7107 32.7336L38.52 33.321ZM61.56 5.80097L62.1174 6.63119L64.7677 4.85176L61.5759 4.8011L61.56 5.80097ZM29.16 28.921L30.0544 29.3682L30.7362 28.0047L29.214 27.9224L29.16 28.921ZM28.84 29.561L29.0945 30.528L29.5321 30.4129L29.7344 30.0082L28.84 29.561ZM70.36 4.44098L71.2544 3.99376L70.9894 3.46377L70.3973 3.44167L70.36 4.44098ZM70.6 4.92097L71.1855 5.73165L71.8745 5.234L71.4944 4.47376L70.6 4.92097ZM60.12 22.681L61.0294 23.097L60.12 22.681ZM52.2 45.561L53.1748 45.7847L53.1776 45.7714L52.2 45.561ZM72.68 33.881L73.4556 34.5122L73.4566 34.5109L72.68 33.881ZM91 13.321L91.6808 14.0535L91.6837 14.0508L91 13.321ZM115.08 3.72098L115.999 4.1149L116.313 3.38153L115.668 2.91224L115.08 3.72098ZM114.84 4.28097L115.146 5.233L115.58 5.0936L115.759 4.6749L114.84 4.28097ZM107.16 9.96098L107.872 10.6629L107.879 10.6556L107.886 10.6482L107.16 9.96098ZM90.36 32.281L91.2136 32.802L91.2141 32.8012L90.36 32.281ZM97.88 50.921L98.8501 51.1635L99.5931 48.1917L97.2398 50.1528L97.88 50.921ZM97.4 52.841L98.1363 53.5176L98.3084 53.3303L98.3701 53.0835L97.4 52.841ZM85.4 57.361C83.5852 57.361 81.7971 56.9145 80.4619 55.8259C79.1581 54.763 78.1538 52.9803 78.0797 50.016L76.0803 50.066C76.1662 53.5017 77.3619 55.879 79.1981 57.376C81.0029 58.8474 83.2948 59.361 85.4 59.361V57.361ZM78.0797 50.016C77.9277 43.9368 80.6579 38.0759 85.1993 31.0646L83.5207 29.9773C78.9421 37.046 75.9123 43.3451 76.0803 50.066L78.0797 50.016ZM85.204 31.0574C91.1657 21.6775 97.5065 14.0766 103.819 8.55355L102.502 7.0484C96.0135 12.7254 89.5543 20.4844 83.516 29.9846L85.204 31.0574ZM103.76 7.00098L103.44 6.76098L102.24 8.36097L102.56 8.60097L103.76 7.00098ZM102.469 6.6325C99.4821 7.82711 95.528 10.6593 90.5387 15.5681L91.9413 16.9938C96.872 12.1426 100.598 9.53484 103.211 8.48945L102.469 6.6325ZM90.5369 15.5698C83.4436 22.5826 76.9943 31.1274 73.8191 35.0963L75.3809 36.3457C78.6057 32.3146 84.9564 23.8994 91.9431 16.9921L90.5369 15.5698ZM73.8262 35.0875C67.8583 42.3772 63.1395 47.9646 59.1256 51.7318C55.081 55.5281 51.9489 57.281 49.16 57.281V59.281C52.7711 59.281 56.3991 57.0339 60.4944 53.1901C64.6205 49.3174 69.4217 43.6247 75.3738 36.3544L73.8262 35.0875ZM49.16 57.281C48.402 57.281 47.8496 57.0869 47.4319 56.7761C47.0068 56.4599 46.6462 55.9667 46.3759 55.2486C45.8225 53.7787 45.7185 51.5549 46.0723 48.725L44.0877 48.4769C43.7215 51.4071 43.7775 54.0232 44.5041 55.9533C44.8738 56.9353 45.4332 57.782 46.2381 58.3808C47.0504 58.9851 48.038 59.281 49.16 59.281V57.281ZM46.0727 48.7217C46.7765 42.9346 49.0569 35.7523 52.1637 28.2642L50.3163 27.4978C47.1831 35.0496 44.8235 42.4273 44.0873 48.4802L46.0727 48.7217ZM52.1627 28.2666C54.3776 22.9666 57.7113 16.693 61.2133 10.9624L59.5067 9.91953C55.9687 15.7089 52.5824 22.0753 50.3173 27.4954L52.1627 28.2666ZM60.9147 9.60893L60.6747 9.44893L59.5653 11.113L59.8053 11.273L60.9147 9.60893ZM59.5223 9.47923C57.1906 11.2175 54.1906 14.7734 50.7421 19.3382C47.2692 23.9353 43.2571 29.6727 38.902 35.8657L40.538 37.0162C44.9029 30.8092 48.8908 25.1067 52.3379 20.5438C55.8094 15.9485 58.6494 12.6245 60.7177 11.0827L59.5223 9.47923ZM38.9024 35.8652C34.897 41.5528 30.5893 47.4938 25.8311 52.0161C21.0686 56.5424 15.9854 59.521 10.44 59.521V61.521C16.7346 61.521 22.2914 58.1395 27.2089 53.4658C32.1307 48.7881 36.543 42.6891 40.5376 37.0168L38.9024 35.8652ZM10.44 59.521C7.38698 59.521 5.39147 58.5236 4.21023 57.1413C3.01753 55.7456 2.53954 53.823 2.79254 51.7629L0.807457 51.5191C0.50046 54.0189 1.06247 56.5363 2.68977 58.4406C4.32853 60.3583 6.93302 61.521 10.44 61.521V59.521ZM2.24721 52.5354L2.72721 52.2954L1.83279 50.5065L1.35279 50.7465L2.24721 52.5354ZM1.38557 51.8482C3.21818 55.5134 7.02698 56.881 10.68 56.881V54.881C7.45302 54.881 4.54182 53.6885 3.17443 50.9538L1.38557 51.8482ZM10.68 56.881C15.2017 56.881 19.6815 54.811 24.3382 50.9509C28.9935 47.0918 33.9112 41.3733 39.3293 33.9084L37.7107 32.7336C32.3288 40.1486 27.5265 45.7101 23.0618 49.4111C18.5985 53.111 14.5583 54.881 10.68 54.881V56.881ZM39.3243 33.9152C44.6512 26.7059 48.9948 20.7884 52.7074 16.2C56.4319 11.5968 59.452 8.42081 62.1174 6.63119L61.0026 4.97075C58.068 6.94113 54.8881 10.3252 51.1526 14.942C47.4052 19.5735 43.0288 25.5361 37.7157 32.7267L39.3243 33.9152ZM61.5759 4.8011C59.1131 4.76201 55.2617 4.31029 50.8627 3.85626C46.5028 3.40627 41.6569 2.96097 37.32 2.96097V4.96097C41.5431 4.96097 46.2972 5.39567 50.6573 5.84569C54.9783 6.29166 58.9669 6.75994 61.5441 6.80085L61.5759 4.8011ZM37.32 2.96097C29.8901 2.96097 24.1841 4.10572 20.3075 6.54455C16.3505 9.03396 14.4 12.8091 14.4 17.721H16.4C16.4 13.4328 18.0495 10.328 21.3725 8.2374C24.7759 6.09623 30.0299 4.96097 37.32 4.96097V2.96097ZM14.4 17.721C14.4 21.424 15.7278 24.406 18.3221 26.4992C20.8771 28.5608 24.5524 29.6734 29.106 29.9195L29.214 27.9224C24.8876 27.6886 21.6829 26.6411 19.5779 24.9427C17.5122 23.2759 16.4 20.898 16.4 17.721H14.4ZM28.2656 28.4738L27.9456 29.1138L29.7344 30.0082L30.0544 29.3682L28.2656 28.4738ZM28.5855 28.5939C27.1885 28.9615 25.7685 29.041 24.36 29.041V31.041C25.8315 31.041 27.4515 30.9604 29.0945 30.528L28.5855 28.5939ZM24.36 29.041C20.5794 29.041 17.2788 27.9713 14.9439 26.0576C12.6297 24.1608 11.2 21.3866 11.2 17.801H9.2C9.2 21.9753 10.8903 25.3211 13.6761 27.6044C16.4412 29.8707 20.2206 31.041 24.36 31.041V29.041ZM11.2 17.801C11.2 12.867 13.3627 9.0169 17.4093 6.35658C21.505 3.66406 27.5862 2.16098 35.4 2.16098V0.160975C27.3738 0.160975 20.855 1.69789 16.3107 4.68537C11.7173 7.70505 9.2 12.1749 9.2 17.801H11.2ZM35.4 2.16098C41.0877 2.16098 47.0888 2.87234 53.0519 3.64273C58.9895 4.40984 64.9055 5.23814 70.3227 5.44028L70.3973 3.44167C65.0945 3.2438 59.2905 2.43211 53.3081 1.65922C47.3512 0.889612 41.2323 0.160975 35.4 0.160975V2.16098ZM69.4656 4.88819L69.7056 5.36819L71.4944 4.47376L71.2544 3.99376L69.4656 4.88819ZM70.0145 4.1103C69.1625 4.72565 68.2873 5.73055 67.4206 6.93042C66.5422 8.14656 65.6244 9.63136 64.6993 11.2692C62.8487 14.5456 60.935 18.4954 59.2106 22.265L61.0294 23.097C62.745 19.3466 64.6313 15.4563 66.4407 12.2528C67.3456 10.6506 68.2229 9.23539 69.0419 8.10153C69.8727 6.9514 70.5975 6.1563 71.1855 5.73165L70.0145 4.1103ZM59.2106 22.265C55.7479 29.8347 52.6009 38.9444 51.2224 45.3506L53.1776 45.7714C54.5191 39.5376 57.6121 30.5672 61.0294 23.097L59.2106 22.265ZM51.2253 45.3373C50.665 47.7789 50.28 49.9368 50.28 51.511C50.28 52.2847 50.3703 53.0499 50.6796 53.6549C50.8422 53.973 51.0782 54.2719 51.4137 54.4879C51.7533 54.7066 52.1343 54.801 52.52 54.801V52.801C52.4658 52.801 52.4717 52.7904 52.4963 52.8063C52.5168 52.8194 52.4978 52.8177 52.4604 52.7446C52.3697 52.567 52.28 52.1872 52.28 51.511C52.28 50.1852 52.615 48.223 53.1747 45.7847L51.2253 45.3373ZM52.52 54.801C53.1799 54.801 53.8566 54.5851 54.5109 54.2685C55.1741 53.9475 55.8785 53.4914 56.6109 52.9372C58.0751 51.8292 59.7373 50.2632 61.5216 48.4033C65.0936 44.6799 69.2575 39.6699 73.4556 34.5122L71.9044 33.2497C67.7025 38.4121 63.5864 43.362 60.0784 47.0187C58.3228 48.8487 56.7449 50.3277 55.4041 51.3423C54.734 51.8493 54.1446 52.2238 53.6397 52.4682C53.1259 52.7168 52.7602 52.801 52.52 52.801V54.801ZM73.4566 34.5109C79.3052 27.3004 84.9413 20.3172 91.6808 14.0535L90.3192 12.5885C83.4587 18.9647 77.7348 26.0615 71.9034 33.251L73.4566 34.5109ZM91.6837 14.0508C99.2423 6.96953 105.639 3.68097 110.52 3.68097V1.68097C104.841 1.68097 97.9577 5.43241 90.3163 12.5912L91.6837 14.0508ZM110.52 3.68097C111.414 3.68097 112.259 3.77449 112.968 3.93599C113.694 4.10134 114.206 4.32197 114.492 4.52971L115.668 2.91224C115.074 2.47998 114.266 2.18061 113.412 1.98596C112.541 1.78746 111.546 1.68097 110.52 1.68097V3.68097ZM114.161 3.32705L113.921 3.88705L115.759 4.6749L115.999 4.1149L114.161 3.32705ZM114.534 3.32894C112.048 4.12818 109.265 6.2809 106.434 9.27378L107.886 10.6482C110.655 7.72106 113.153 5.87377 115.146 5.233L114.534 3.32894ZM106.448 9.25905C100.938 14.8497 94.8927 22.9169 89.506 31.7608L91.2141 32.8012C96.5474 24.045 102.502 16.1123 107.872 10.6629L106.448 9.25905ZM89.5065 31.76C87.6251 34.8422 85.8154 37.9295 84.4771 40.9228C83.1411 43.9111 82.24 46.8797 82.24 49.721H84.24C84.24 47.2822 85.019 44.6109 86.3029 41.7391C87.5846 38.8725 89.3349 35.8797 91.2136 32.802L89.5065 31.76ZM82.24 49.721C82.24 51.5956 82.8682 53.1247 84.1229 54.1618C85.3462 55.1729 87.0269 55.601 88.92 55.601V53.601C87.2931 53.601 86.1338 53.2291 85.3971 52.6202C84.6918 52.0373 84.24 51.1264 84.24 49.721H82.24ZM88.92 55.601C92.668 55.601 95.527 54.1835 98.5202 51.6892L97.2398 50.1528C94.473 52.4585 92.052 53.601 88.92 53.601V55.601ZM96.9099 50.6784L96.4299 52.5984L98.3701 53.0835L98.8501 51.1635L96.9099 50.6784ZM96.6637 52.1644C94.07 54.9869 90.5588 57.361 85.4 57.361V59.361C91.2812 59.361 95.29 56.6151 98.1363 53.5176L96.6637 52.1644ZM114.339 34.041L114.962 34.8236L114.967 34.8194L114.339 34.041ZM107.379 44.281L106.415 44.0179L106.111 45.1302L107.255 45.2733L107.379 44.281ZM119.219 43.321L119.479 44.2867L119.492 44.2831L119.219 43.321ZM128.259 35.161L127.261 35.1055L127.26 35.1193L128.259 35.161ZM127.699 52.201L128.389 52.9255L128.611 52.7137L128.677 52.4134L127.699 52.201ZM108.179 33.321L108.773 34.1257L108.78 34.1208L108.786 34.1157L108.179 33.321ZM132.019 34.921L133.019 34.9371L133.019 34.929V34.921H132.019ZM120.739 44.841L120.503 43.8692L120.501 43.8699L120.739 44.841ZM107.059 45.801L107.142 44.8044L106.424 44.7446L106.14 45.4071L107.059 45.801ZM128.099 50.361L129.077 50.5734L129.693 47.7395L127.461 49.5914L128.099 50.361ZM113.717 33.2584C110.036 36.1859 107.433 40.2854 106.415 44.0179L108.344 44.5441C109.246 41.2366 111.602 37.496 114.962 34.8236L113.717 33.2584ZM107.255 45.2733C110.589 45.69 115.2 45.4388 119.479 44.2866L118.959 42.3554C114.919 43.4431 110.569 43.672 107.503 43.2887L107.255 45.2733ZM119.492 44.2831C121.992 43.5748 124.351 42.4384 126.126 40.9338C127.901 39.429 129.163 37.4893 129.259 35.2026L127.26 35.1193C127.196 36.6726 126.337 38.1329 124.833 39.4081C123.328 40.6835 121.247 41.7072 118.947 42.3588L119.492 44.2831ZM129.258 35.2164C129.35 33.5571 128.889 32.0846 127.789 31.0368C126.704 30.0039 125.142 29.521 123.299 29.521V31.521C124.817 31.521 125.814 31.9181 126.41 32.4851C126.99 33.0374 127.329 33.8848 127.261 35.1055L129.258 35.2164ZM123.299 29.521C119.969 29.521 116.315 31.1634 113.712 33.2626L114.967 34.8194C117.324 32.9186 120.549 31.521 123.299 31.521V29.521ZM127.01 51.4764C123.892 54.4429 118.611 57.281 112.019 57.281V59.281C119.188 59.281 124.947 56.1991 128.389 52.9255L127.01 51.4764ZM112.019 57.281C108.28 57.281 105.5 56.5555 103.671 55.1402C101.892 53.7628 100.859 51.6097 100.859 48.361H98.8594C98.8594 52.0723 100.067 54.8792 102.447 56.7218C104.779 58.5265 108.079 59.281 112.019 59.281V57.281ZM100.859 48.361C100.859 42.9099 104.085 37.584 108.773 34.1257L107.586 32.5163C102.514 36.258 98.8594 42.1321 98.8594 48.361H100.859ZM108.786 34.1157C113.005 30.8945 118.309 29.281 122.979 29.281V27.281C117.89 27.281 112.154 29.0274 107.572 32.5262L108.786 34.1157ZM122.979 29.281C125.44 29.281 127.477 29.7464 128.868 30.6654C130.201 31.5454 131.019 32.8879 131.019 34.921H133.019C133.019 32.2341 131.878 30.2566 129.971 28.9966C128.122 27.7755 125.639 27.281 122.979 27.281V29.281ZM131.02 34.9048C130.986 36.9821 129.798 38.8694 127.824 40.4505C125.853 42.0293 123.195 43.2154 120.503 43.8692L120.975 45.8127C123.883 45.1065 126.826 43.8126 129.075 42.0115C131.321 40.2126 132.973 37.8198 133.019 34.9371L131.02 34.9048ZM120.501 43.8699C115.754 45.0371 110.908 45.1182 107.142 44.8044L106.976 46.7975C110.891 47.1237 115.965 47.0449 120.978 45.812L120.501 43.8699ZM106.14 45.4071C105.954 45.8426 105.864 46.4627 105.815 46.9374C105.761 47.4513 105.739 47.9659 105.739 48.281H107.739C107.739 48.0361 107.758 47.5907 107.804 47.1446C107.855 46.6592 107.925 46.3194 107.979 46.1949L106.14 45.4071ZM105.739 48.281C105.739 50.9844 106.496 53.1046 108.122 54.5243C109.721 55.9202 111.984 56.481 114.659 56.481V54.481C112.215 54.481 110.518 53.9617 109.437 53.0177C108.383 52.0973 107.739 50.6175 107.739 48.281H105.739ZM114.659 56.481C119.89 56.481 124.829 54.3738 128.738 51.1305L127.461 49.5914C123.849 52.5882 119.349 54.481 114.659 54.481V56.481ZM127.122 50.1485L126.722 51.9885L128.677 52.4134L129.077 50.5734L127.122 50.1485ZM158.791 52.521L159.79 52.5427L159.791 52.5318V52.521H158.791ZM162.951 42.281L163.789 42.8267L163.792 42.8217L162.951 42.281ZM146.871 39.561L146.191 38.827L146.125 38.8885L146.071 38.961L146.871 39.561ZM140.791 50.041L139.875 49.639L139.872 49.6455L139.869 49.652L140.791 50.041ZM137.991 57.961L137.951 58.9602L138.819 58.9949L138.975 58.1399L137.991 57.961ZM133.671 53.561L132.672 53.5175L132.671 53.5279L132.671 53.5383L133.671 53.561ZM139.351 40.041L140.193 40.5804L140.195 40.576L139.351 40.041ZM148.391 29.561V28.561H148.101L147.856 28.7162L148.391 29.561ZM152.951 29.561L153.808 29.0465L153.517 28.561H152.951V29.561ZM153.431 30.361L154.177 31.027L154.667 30.4778L154.288 29.8465L153.431 30.361ZM148.471 36.601L147.632 36.056L147.32 36.5361L147.576 37.0482L148.471 36.601ZM148.551 36.761L147.656 37.2082L148.226 38.3472L149.197 37.5239L148.551 36.761ZM173.511 34.681L172.511 34.654L172.511 34.6675V34.681H173.511ZM169.351 43.001L168.527 42.4337L168.52 42.4441L168.513 42.4547L169.351 43.001ZM176.471 50.921L177.424 51.2242L178.439 48.0334L175.84 50.1449L176.471 50.921ZM175.911 52.681L176.632 53.3735L176.793 53.2058L176.864 52.9842L175.911 52.681ZM165.111 56.961C163.368 56.961 162.02 56.551 161.137 55.8415C160.291 55.1615 159.756 54.1151 159.79 52.5427L157.791 52.4992C157.745 54.6069 158.49 56.2805 159.884 57.4005C161.241 58.4909 163.093 58.961 165.111 58.961V56.961ZM159.791 52.521C159.791 49.2602 161.528 46.299 163.789 42.8266L162.113 41.7353C159.894 45.143 157.791 48.5817 157.791 52.521H159.791ZM163.792 42.8217C164.322 41.9968 164.833 41.2542 165.311 40.5601C165.784 39.8722 166.231 39.2215 166.611 38.6071C167.36 37.3957 167.951 36.1741 167.951 34.841H165.951C165.951 35.5879 165.621 36.4063 164.91 37.5549C164.56 38.1204 164.142 38.7298 163.663 39.4268C163.188 40.1177 162.659 40.8851 162.109 41.7402L163.792 42.8217ZM167.951 34.841C167.951 33.6657 167.476 32.6242 166.461 31.9196C165.503 31.2543 164.167 30.961 162.551 30.961V32.961C163.974 32.961 164.838 33.2276 165.32 33.5623C165.746 33.8577 165.951 34.2562 165.951 34.841H167.951ZM162.551 30.961C158.053 30.961 151.662 33.7645 146.191 38.827L147.55 40.2949C152.799 35.4374 158.728 32.961 162.551 32.961V30.961ZM146.071 38.961C144.103 41.5839 141.345 46.2906 139.875 49.639L141.706 50.443C143.116 47.2313 145.798 42.658 147.671 40.161L146.071 38.961ZM139.869 49.652C138.357 53.235 137.35 55.8957 137.007 57.7821L138.975 58.1399C139.272 56.5063 140.185 54.0469 141.712 50.4299L139.869 49.652ZM138.031 56.9618C137.119 56.9253 136.264 56.7253 135.663 56.2601C135.119 55.8391 134.636 55.0878 134.67 53.5837L132.671 53.5383C132.625 55.5542 133.303 56.9628 134.439 57.8418C135.518 58.6767 136.863 58.9167 137.951 58.9602L138.031 56.9618ZM134.67 53.6044C134.817 50.2154 136.917 45.6943 140.193 40.5804L138.509 39.5015C135.225 44.6276 132.844 49.5465 132.672 53.5175L134.67 53.6044ZM140.195 40.576C141.691 38.2139 143.322 36.014 144.868 34.2245C146.426 32.4191 147.85 31.087 148.926 30.4058L147.856 28.7162C146.531 29.555 144.955 31.0629 143.354 32.9175C141.739 34.7879 140.05 37.068 138.506 39.5059L140.195 40.576ZM148.391 30.561H152.951V28.561H148.391V30.561ZM152.093 30.0755L152.573 30.8755L154.288 29.8465L153.808 29.0465L152.093 30.0755ZM152.685 29.695C150.671 31.9505 148.712 34.394 147.632 36.056L149.309 37.146C150.309 35.608 152.19 33.2514 154.177 31.027L152.685 29.695ZM147.576 37.0482L147.656 37.2082L149.445 36.3138L149.365 36.1538L147.576 37.0482ZM149.197 37.5239C153.839 33.5904 160.414 30.001 166.471 30.001V28.001C159.728 28.001 152.703 31.9315 147.904 35.9981L149.197 37.5239ZM166.471 30.001C168.904 30.001 170.407 30.636 171.287 31.4605C172.159 32.2779 172.545 33.4006 172.511 34.654L174.51 34.708C174.556 33.0014 174.023 31.284 172.655 30.0014C171.294 28.7259 169.237 28.001 166.471 28.001V30.001ZM172.511 34.681C172.511 35.7251 172.173 36.7329 171.487 37.9642C170.787 39.2199 169.79 40.5998 168.527 42.4337L170.174 43.5683C171.391 41.8021 172.474 40.3021 173.234 38.9378C174.008 37.5491 174.511 36.1968 174.511 34.681H172.511ZM168.513 42.4547C167.343 44.249 166.164 45.9287 165.31 47.3718C164.468 48.7951 163.791 50.2236 163.791 51.561H165.791C165.791 50.8183 166.193 49.8068 167.031 48.3901C167.858 46.9932 168.958 45.433 170.188 43.5472L168.513 42.4547ZM163.791 51.561C163.791 52.7696 164.163 53.8386 165.074 54.5706C165.941 55.2668 167.131 55.521 168.471 55.521V53.521C167.33 53.521 166.68 53.2951 166.327 53.0114C166.018 52.7633 165.791 52.3524 165.791 51.561H163.791ZM168.471 55.521C171.629 55.521 174.498 53.8119 177.101 51.6971L175.84 50.1449C173.323 52.1901 170.912 53.521 168.471 53.521V55.521ZM175.518 50.6178L174.958 52.3778L176.864 52.9842L177.424 51.2242L175.518 50.6178ZM175.189 51.9884C173.307 53.9496 169.878 56.961 165.111 56.961V58.961C170.743 58.961 174.675 55.4123 176.632 53.3735L175.189 51.9884ZM205.619 50.201L206.606 50.3654L206.69 49.8578L206.326 49.4939L205.619 50.201ZM205.539 50.121L206.246 49.4139L205.56 48.7279L204.854 49.3928L205.539 50.121ZM184.339 40.441L185.182 40.98L185.186 40.973L185.191 40.9659L184.339 40.441ZM193.779 29.561V28.561H193.486L193.239 28.7198L193.779 29.561ZM198.579 29.561L199.369 28.947L199.068 28.561H198.579V29.561ZM199.139 30.281L199.886 30.9466L200.44 30.3248L199.929 29.667L199.139 30.281ZM190.019 42.681L190.882 43.1872L190.882 43.187L190.019 42.681ZM206.019 48.041L206.709 48.7654L206.901 48.5825L206.977 48.3283L206.019 48.041ZM209.619 40.201L208.771 39.6722L208.763 39.6836L208.757 39.6953L209.619 40.201ZM218.419 29.561V28.561H218.103L217.844 28.7432L218.419 29.561ZM223.379 29.561L224.169 28.947L223.868 28.561H223.379V29.561ZM223.939 30.281L224.709 30.919L225.222 30.3008L224.729 29.667L223.939 30.281ZM216.179 40.761L215.339 40.2195L215.337 40.2215L216.179 40.761ZM222.579 50.921L223.544 51.1841L224.385 48.1016L221.937 50.1548L222.579 50.921ZM222.099 52.681L222.835 53.358L223 53.1789L223.064 52.9441L222.099 52.681ZM211.619 56.961C209.873 56.961 208.613 56.4897 207.793 55.7004C206.979 54.9172 206.459 53.6876 206.459 51.881H204.459C204.459 54.0743 205.1 55.8847 206.406 57.1415C207.706 58.3922 209.526 58.961 211.619 58.961V56.961ZM206.459 51.881C206.459 51.2472 206.528 50.8344 206.606 50.3654L204.633 50.0366C204.551 50.5276 204.459 51.0747 204.459 51.881H206.459ZM206.326 49.4939L206.246 49.4139L204.832 50.8281L204.912 50.9081L206.326 49.4939ZM204.854 49.3928C200.862 53.1503 194.696 56.961 188.179 56.961V58.961C195.423 58.961 202.057 54.7717 206.225 50.8492L204.854 49.3928ZM188.179 56.961C185.409 56.961 183.742 56.1796 182.761 55.1582C181.769 54.1265 181.339 52.7053 181.339 51.161H179.339C179.339 53.0567 179.869 55.0354 181.318 56.5437C182.777 58.0624 185.03 58.961 188.179 58.961V56.961ZM181.339 51.161C181.339 48.5606 182.663 44.915 185.182 40.98L183.497 39.9019C180.895 43.967 179.339 48.0013 179.339 51.161H181.339ZM185.191 40.9659C186.637 38.6203 188.402 36.3055 190.08 34.4022C191.774 32.48 193.32 31.0451 194.32 30.4022L193.239 28.7198C191.999 29.5168 190.305 31.122 188.579 33.0797C186.837 35.0564 185.002 37.4617 183.488 39.9161L185.191 40.9659ZM193.779 30.561H198.579V28.561H193.779V30.561ZM197.79 30.1749L198.35 30.8949L199.929 29.667L199.369 28.947L197.79 30.1749ZM198.393 29.6154C195.731 32.6 192.724 36.0954 189.157 42.175L190.882 43.187C194.355 37.2666 197.268 33.8819 199.886 30.9466L198.393 29.6154ZM189.157 42.1748C186.996 45.8562 185.659 48.9447 185.659 51.481H187.659C187.659 49.5373 188.723 46.8657 190.882 43.1872L189.157 42.1748ZM185.659 51.481C185.659 52.7462 186.08 53.9643 187.089 54.8517C188.081 55.7245 189.509 56.161 191.299 56.161V54.161C189.81 54.161 188.918 53.7974 188.41 53.3503C187.918 52.9176 187.659 52.2958 187.659 51.481H185.659ZM191.299 56.161C195.547 56.161 201.622 53.606 206.709 48.7654L205.33 47.3166C200.497 51.9159 194.891 54.161 191.299 54.161V56.161ZM206.977 48.3283C207.665 46.0346 209.143 42.9916 210.482 40.7067L208.757 39.6953C207.376 42.0503 205.813 45.2473 205.062 47.7536L206.977 48.3283ZM210.468 40.7297C211.965 38.3274 213.598 36.0848 215.118 34.2612C216.651 32.4212 218.024 31.0621 218.995 30.3788L217.844 28.7432C216.655 29.5799 215.148 31.1008 213.581 32.9808C212.001 34.8772 210.314 37.1945 208.771 39.6722L210.468 40.7297ZM218.419 30.561H223.379V28.561H218.419V30.561ZM222.59 30.1749L223.15 30.8949L224.729 29.667L224.169 28.947L222.59 30.1749ZM223.169 29.643C220.839 32.456 218.41 35.451 215.339 40.2195L217.02 41.3025C220.029 36.631 222.4 33.7059 224.709 30.919L223.169 29.643ZM215.337 40.2215C213.704 42.7717 212.431 44.8001 211.572 46.5501C210.706 48.3123 210.219 49.8692 210.219 51.481H212.219C212.219 50.2927 212.572 49.0497 213.367 47.4318C214.167 45.8018 215.375 43.8703 217.021 41.3004L215.337 40.2215ZM210.219 51.481C210.219 52.687 210.589 53.7628 211.472 54.5129C212.324 55.2375 213.497 55.521 214.819 55.521V53.521C213.742 53.521 213.115 53.2845 212.767 52.989C212.449 52.7191 212.219 52.2749 212.219 51.481H210.219ZM214.819 55.521C217.825 55.521 220.697 53.8047 223.222 51.6872L221.937 50.1548C219.502 52.1973 217.094 53.521 214.819 53.521V55.521ZM221.615 50.6579L221.135 52.4179L223.064 52.9441L223.544 51.1841L221.615 50.6579ZM221.363 52.0039C219.556 53.9685 216.371 56.961 211.619 56.961V58.961C217.268 58.961 220.963 55.3935 222.835 53.358L221.363 52.0039Z" fill="#FDD504" mask="url(#path-1-outside-1_153_524)"/>
</g>
<defs>
<filter id="filter0_i_153_524" x="0.727173" y="0.161133" width="228.494" height="65.3594" filterUnits="userSpaceOnUse" color-interpolation-filters="sRGB">
<feFlood flood-opacity="0" result="BackgroundImageFix"/>
<feBlend mode="normal" in="SourceGraphic" in2="BackgroundImageFix" result="shape"/>
<feColorMatrix in="SourceAlpha" type="matrix" values="0 0 0 0 0 0 0 0 0 0 0 0 0 0 0 0 0 0 127 0" result="hardAlpha"/>
<feOffset dx="4" dy="4"/>
<feGaussianBlur stdDeviation="4"/>
<feComposite in2="hardAlpha" operator="arithmetic" k2="-1" k3="1"/>
<feColorMatrix type="matrix" values="0 0 0 0 1 0 0 0 0 1 0 0 0 0 1 0 0 0 0.3 0"/>
<feBlend mode="normal" in2="shape" result="effect1_innerShadow_153_524"/>
</filter>
</defs>
</svg>
