<svg width="130" height="127" viewBox="0 0 130 127" fill="none" xmlns="http://www.w3.org/2000/svg">
<g clip-path="url(#clip0_178_1189)">
<path d="M15.8167 54.5594C15.2793 55.5542 14.6943 56.3289 14.0573 56.8793L11.3967 54.9108C11.9643 54.3858 12.48 53.7424 12.9307 52.9761C13.3857 52.2141 13.7063 51.4352 13.897 50.6393C14.2567 49.128 14.053 48.2856 13.2817 48.112C12.8743 48.0189 12.5233 48.1671 12.2243 48.5523C11.9253 48.9375 11.5527 49.581 11.1063 50.4869C10.6253 51.4818 10.1703 52.2988 9.737 52.938C9.30366 53.5815 8.736 54.0853 8.034 54.4536C7.332 54.8219 6.48266 54.8938 5.49466 54.6695C4.628 54.4705 3.9 54.0599 3.315 53.4376C2.73 52.8153 2.34 51.994 2.15366 50.9822C1.96733 49.9705 2.03666 48.7936 2.35733 47.4559C2.574 46.5415 2.899 45.6652 3.31933 44.827C3.744 43.9888 4.238 43.2776 4.80566 42.6934L7.50533 44.5899C6.45666 45.7456 5.78066 46.9479 5.48166 48.1925C5.29533 48.9756 5.278 49.5725 5.42966 49.9832C5.58133 50.3938 5.84566 50.6436 6.227 50.7325C6.60833 50.8214 6.942 50.6732 7.23233 50.2922C7.52266 49.9112 7.88233 49.2762 8.31133 48.3787C8.79666 47.3712 9.25166 46.5499 9.685 45.9149C10.114 45.2799 10.6817 44.7719 11.3793 44.3952C12.077 44.0184 12.922 43.9422 13.91 44.1666C14.7637 44.3613 15.483 44.7719 16.0637 45.39C16.6443 46.0123 17.03 46.8336 17.2207 47.8538C17.4113 48.874 17.3507 50.0467 17.03 51.3717C16.7613 52.4978 16.354 53.5561 15.8167 54.5509V54.5594Z" fill="white"/>
<path d="M15.2317 22.2119L27.4257 30.0901L25.1463 33.4599L20.3927 30.3865L17.2813 34.9796L22.035 38.053L19.7557 41.4228L7.56166 33.5445L9.84099 30.1748L14.4213 33.1339L17.5327 28.5407L12.9523 25.5816L15.2317 22.2119Z" fill="white"/>
<path d="M22.4553 15.4349L25.649 12.8652L34.9397 23.8888L31.746 26.4585L22.4553 15.4349Z" fill="white"/>
<path d="M50.3057 9.7285C50.9773 10.1137 51.48 10.7022 51.8137 11.4938C52.299 12.6537 52.1993 13.7375 51.5103 14.745C50.8213 15.7568 49.5733 16.6246 47.7707 17.3443L40.4647 20.2695L34.918 7.05727L41.834 4.28867C43.5587 3.59864 45.006 3.38274 46.1673 3.6452C47.3287 3.90767 48.1347 4.56807 48.5767 5.62217C48.841 6.25294 48.919 6.87947 48.8107 7.50177C48.7023 8.12407 48.4207 8.6998 47.9613 9.2205C48.8453 9.17394 49.6253 9.34327 50.297 9.7285H50.3057ZM39.8407 8.2426L40.911 10.7911L43.537 9.73697C44.824 9.2205 45.292 8.5347 44.9323 7.67957C44.577 6.83714 43.758 6.67204 42.471 7.1885L39.845 8.2426H39.8407ZM47.775 12.6241C47.4023 11.7309 46.5443 11.5531 45.2053 12.0907L41.9987 13.3734L43.1253 16.0531L46.332 14.7704C47.671 14.2328 48.1563 13.5173 47.7793 12.6241H47.775Z" fill="white"/>
<path d="M68.1893 11.5062H62.01L60.8617 14.279H56.6453L63.0933 0H67.1667L73.6407 14.2833H69.3377L68.1893 11.5104V11.5062ZM66.976 8.53017L65.0953 3.95817L63.2147 8.52593H66.9717L66.976 8.53017Z" fill="white"/>
<path d="M78.3553 15.6169C77.662 14.9819 77.1723 14.2495 76.8907 13.424L79.9327 11.7392C80.3097 12.933 80.925 13.6865 81.7743 13.9913C82.3377 14.1945 82.8273 14.1818 83.2477 13.9574C83.668 13.7331 83.9973 13.3013 84.24 12.662L86.4197 6.90471L81.679 5.19021L82.7883 2.26074L91.3683 5.36378L88.166 13.822C87.5073 15.5576 86.567 16.6964 85.345 17.2383C84.123 17.7844 82.641 17.742 80.9077 17.1113C79.9023 16.7472 79.053 16.2477 78.3597 15.6127L78.3553 15.6169Z" fill="white"/>
<path d="M91.7713 20.3873C91.5633 18.749 92.131 17.1022 93.4787 15.4385L98.5097 9.23242L101.751 11.7386L96.798 17.8473C95.3463 19.638 95.3463 21.0942 96.798 22.2203C98.2367 23.3337 99.684 22.995 101.136 21.2043L106.089 15.0956L109.282 17.5636L104.251 23.7697C102.904 25.4334 101.391 26.352 99.71 26.5298C98.0287 26.7076 96.3387 26.1361 94.64 24.8196C92.937 23.503 91.9793 22.0256 91.7713 20.3873Z" fill="white"/>
<path d="M109.902 33.1344L107.679 32.7237L104.594 34.6372L102.401 31.259L114.747 23.6094L116.939 26.9876L111.809 30.1668L119.973 31.6569L122.412 35.4119L113.746 33.871L110.236 43.3198L107.662 39.3574L109.902 33.1344Z" fill="white"/>
<path d="M112.476 46.198C113.36 44.7925 114.859 43.8527 116.974 43.3744L124.869 41.6006L125.797 45.5376L118.023 47.286C115.743 47.7982 114.812 48.937 115.228 50.698C115.639 52.4464 116.987 53.0645 119.266 52.5522L127.04 50.8039L127.955 54.6816L120.059 56.4554C117.945 56.9295 116.172 56.7263 114.751 55.8373C113.33 54.9483 112.372 53.4709 111.887 51.405C111.401 49.3391 111.596 47.5992 112.48 46.1938L112.476 46.198Z" fill="white"/>
<path d="M21.229 110.198C21.0687 109.965 20.9647 109.745 20.917 109.542L21.6797 109.207C21.7317 109.394 21.814 109.58 21.931 109.766C22.048 109.957 22.1823 110.117 22.3383 110.253C22.633 110.511 22.8497 110.566 22.9797 110.422C23.049 110.346 23.0577 110.253 23.0057 110.143C22.9537 110.033 22.854 109.876 22.7067 109.673C22.542 109.453 22.412 109.254 22.321 109.085C22.23 108.915 22.1823 108.733 22.1823 108.538C22.1823 108.344 22.269 108.153 22.438 107.967C22.5853 107.806 22.7673 107.696 22.9753 107.645C23.1833 107.594 23.4173 107.607 23.6643 107.692C23.9157 107.772 24.1713 107.929 24.4313 108.157C24.609 108.314 24.7693 108.488 24.908 108.678C25.0467 108.869 25.1463 109.059 25.2113 109.25L24.4617 109.601C24.3273 109.237 24.1367 108.949 23.894 108.737C23.7423 108.602 23.608 108.53 23.4997 108.513C23.387 108.496 23.3003 108.521 23.2353 108.593C23.1703 108.665 23.1617 108.754 23.2137 108.86C23.2657 108.966 23.3653 109.123 23.5127 109.322C23.6817 109.546 23.8117 109.741 23.9027 109.91C23.9937 110.079 24.0413 110.261 24.0413 110.456C24.0413 110.651 23.959 110.841 23.79 111.028C23.6427 111.188 23.465 111.294 23.257 111.341C23.049 111.392 22.8193 111.375 22.5637 111.294C22.3123 111.214 22.0567 111.061 21.7967 110.833C21.5757 110.642 21.385 110.426 21.229 110.194V110.198Z" fill="white"/>
<path d="M27.0747 114.042L25.8397 113.132L25.181 113.517L24.3403 112.895L27.8287 110.994L28.639 111.595L27.729 115.397L26.871 114.762L27.0703 114.038L27.0747 114.042ZM27.2913 113.272L27.6207 112.082L26.5417 112.717L27.2913 113.272Z" fill="white"/>
<path d="M31.3083 113.437L32.1793 113.978L30.6583 116.315L32.1317 117.23L31.694 117.907L29.3497 116.455L31.3083 113.441V113.437Z" fill="white"/>
<path d="M34.1683 119.084C33.9733 118.804 33.865 118.495 33.8433 118.169C33.8217 117.839 33.8953 117.517 34.0643 117.204C34.2333 116.891 34.463 116.649 34.7533 116.48C35.0437 116.311 35.3643 116.226 35.711 116.222C36.0577 116.218 36.4043 116.306 36.7467 116.484C37.089 116.658 37.3577 116.886 37.5527 117.17C37.7477 117.454 37.856 117.759 37.8777 118.089C37.8993 118.419 37.8257 118.741 37.6567 119.054C37.4877 119.367 37.258 119.608 36.9677 119.778C36.6773 119.947 36.3567 120.032 36.01 120.036C35.6633 120.04 35.3167 119.951 34.9743 119.774C34.632 119.596 34.3633 119.371 34.1683 119.088V119.084ZM35.88 119.143C36.0533 119.134 36.2137 119.084 36.3653 118.986C36.517 118.889 36.6383 118.753 36.7337 118.576C36.829 118.398 36.8767 118.22 36.8723 118.046C36.8723 117.869 36.8203 117.712 36.7293 117.568C36.6383 117.424 36.5083 117.31 36.348 117.229C36.1833 117.145 36.0187 117.107 35.8453 117.115C35.672 117.124 35.5117 117.174 35.36 117.272C35.2083 117.369 35.087 117.509 34.9917 117.682C34.8963 117.86 34.8487 118.038 34.853 118.211C34.8573 118.385 34.905 118.55 34.996 118.69C35.087 118.834 35.217 118.948 35.3773 119.029C35.542 119.113 35.7067 119.151 35.88 119.143Z" fill="white"/>
<path d="M43.4157 119.524L42.0203 122.822L41.236 122.504L40.4863 120.146L39.741 121.903L38.805 121.526L40.2003 118.229L40.9847 118.546L41.7343 120.904L42.4797 119.147L43.4157 119.524Z" fill="white"/>
<path d="M50.4357 125.327L50.8993 123.49L49.6037 124.76L49.1573 124.65L48.6243 122.982L48.165 124.769L47.2377 124.54L48.1303 121.077L48.9537 121.28L49.6817 123.583L51.4107 121.886L52.234 122.089L51.35 125.552L50.427 125.323L50.4357 125.327Z" fill="white"/>
<path d="M56.719 125.662L56.5933 126.433L53.6943 125.988L54.262 122.462L57.0917 122.898L56.966 123.668L55.146 123.389L55.0507 123.986L56.654 124.231L56.5327 124.977L54.9293 124.731L54.8253 125.374L56.7147 125.667L56.719 125.662Z" fill="white"/>
<path d="M62.1097 126.916L62.2267 125.028L61.1867 126.505L60.7273 126.476L59.8953 124.93L59.7697 126.768L58.8163 126.704L59.059 123.14L59.9083 123.195L61.0523 125.333L62.4433 123.356L63.2927 123.411L63.063 126.975L62.114 126.916H62.1097Z" fill="white"/>
<path d="M68.614 125.391C68.7353 125.539 68.8003 125.721 68.8047 125.933C68.8133 126.246 68.692 126.492 68.4363 126.665C68.185 126.843 67.8123 126.936 67.327 126.949L65.3553 126.996L65.2643 123.427L67.132 123.38C67.6 123.368 67.9553 123.444 68.2023 123.605C68.4493 123.766 68.5793 123.99 68.5837 124.278C68.5837 124.447 68.549 124.599 68.4667 124.739C68.3843 124.875 68.2673 124.985 68.1113 125.065C68.3237 125.133 68.4883 125.239 68.6097 125.387L68.614 125.391ZM66.3043 124.134L66.3217 124.824L67.0323 124.807C67.379 124.798 67.5523 124.68 67.5437 124.447C67.5393 124.218 67.3617 124.108 67.015 124.117L66.3043 124.134ZM67.756 125.848C67.7517 125.607 67.5653 125.493 67.2057 125.501L66.339 125.522L66.3563 126.246L67.223 126.225C67.587 126.217 67.7647 126.09 67.756 125.848Z" fill="white"/>
<path d="M73.8443 125.671L73.931 126.445L71.0147 126.754L70.6247 123.207L73.476 122.906L73.5627 123.681L71.7297 123.876L71.7947 124.473L73.411 124.303L73.4933 125.053L71.877 125.222L71.9507 125.87L73.8487 125.671H73.8443Z" fill="white"/>
<path d="M77.5147 124.901L76.96 125.006L77.142 125.938L76.128 126.128L75.439 122.623L77.0813 122.314C77.4063 122.255 77.6967 122.255 77.9567 122.314C78.2167 122.373 78.429 122.492 78.598 122.661C78.767 122.83 78.8753 123.051 78.9273 123.313C78.975 123.567 78.962 123.8 78.8753 124.012C78.793 124.223 78.6457 124.405 78.442 124.553L79.4343 125.51L78.3467 125.713L77.5147 124.905V124.901ZM77.6707 123.156C77.545 123.084 77.3803 123.072 77.1723 123.11L76.609 123.216L76.8083 124.244L77.3717 124.139C77.5797 124.1 77.727 124.024 77.818 123.918C77.9047 123.808 77.935 123.673 77.9047 123.512C77.8743 123.347 77.7963 123.233 77.6707 123.161V123.156Z" fill="white"/>
<path d="M81.913 124.871C81.627 124.871 81.38 124.841 81.1807 124.773L81.302 123.969C81.4883 124.028 81.6963 124.062 81.9217 124.066C82.147 124.071 82.3593 124.049 82.563 123.994C82.9443 123.893 83.109 123.745 83.057 123.558C83.031 123.461 82.953 123.402 82.8317 123.385C82.7103 123.368 82.5197 123.364 82.264 123.376C81.9823 123.393 81.744 123.393 81.549 123.376C81.354 123.359 81.172 123.3 81.003 123.194C80.834 123.089 80.717 122.915 80.652 122.678C80.5913 122.466 80.5957 122.263 80.665 122.064C80.7343 121.865 80.873 121.683 81.0767 121.522C81.2803 121.361 81.5533 121.234 81.8913 121.141C82.121 121.078 82.3593 121.044 82.5977 121.031C82.836 121.023 83.057 121.044 83.2563 121.095L83.1523 121.899C82.7667 121.814 82.4157 121.814 82.0993 121.899C81.9 121.954 81.7657 122.022 81.692 122.102C81.6183 122.183 81.5923 122.271 81.6183 122.36C81.6443 122.454 81.718 122.509 81.8393 122.521C81.9607 122.538 82.147 122.538 82.3983 122.521C82.6843 122.504 82.9227 122.504 83.1177 122.521C83.3127 122.538 83.4947 122.597 83.6637 122.703C83.8327 122.809 83.9497 122.978 84.019 123.22C84.0797 123.427 84.071 123.63 84.0017 123.829C83.9323 124.028 83.7937 124.21 83.5857 124.371C83.3777 124.536 83.109 124.663 82.771 124.752C82.485 124.828 82.199 124.871 81.913 124.875V124.871Z" fill="white"/>
<path d="M90.3197 121.103L89.7997 121.319L90.1767 122.191L89.2233 122.584L87.802 119.295L89.3403 118.66C89.6437 118.533 89.9297 118.474 90.1983 118.482C90.467 118.486 90.701 118.558 90.9003 118.69C91.0997 118.821 91.2557 119.011 91.364 119.261C91.468 119.498 91.4983 119.731 91.4637 119.955C91.4247 120.18 91.325 120.383 91.156 120.574L92.3303 121.306L91.312 121.725L90.324 121.103H90.3197ZM90.0987 119.363C89.9643 119.32 89.7953 119.337 89.6003 119.418L89.0717 119.638L89.4877 120.603L90.0163 120.383C90.2113 120.303 90.3413 120.201 90.4063 120.074C90.4713 119.951 90.467 119.812 90.4063 119.659C90.3413 119.507 90.2373 119.405 90.103 119.363H90.0987Z" fill="white"/>
<path d="M96.109 118.665L94.744 119.372L94.822 120.117L93.8903 120.6L93.6087 116.705L94.51 116.239L97.6473 118.657L96.6983 119.148L96.1133 118.665H96.109ZM95.485 118.144L94.523 117.348L94.653 118.572L95.485 118.144Z" fill="white"/>
<path d="M97.2443 114.736L98.696 113.817C99.034 113.605 99.372 113.478 99.71 113.436C100.052 113.394 100.369 113.44 100.663 113.576C100.954 113.711 101.201 113.931 101.404 114.232C101.604 114.532 101.708 114.846 101.716 115.159C101.725 115.472 101.638 115.777 101.456 116.065C101.279 116.353 101.019 116.603 100.685 116.814L99.2333 117.733L97.2487 114.736H97.2443ZM100.195 116.158C100.46 115.993 100.62 115.786 100.685 115.54C100.75 115.294 100.694 115.04 100.525 114.786C100.356 114.528 100.143 114.38 99.8877 114.333C99.632 114.287 99.372 114.35 99.1077 114.516L98.5617 114.863L99.6493 116.505L100.195 116.158Z" fill="white"/>
<path d="M102.18 111.451L103.003 110.837L105.218 113.677L104.394 114.291L102.18 111.451Z" fill="white"/>
<path d="M107.389 111.752C107.051 111.828 106.717 111.82 106.396 111.718C106.071 111.621 105.794 111.434 105.556 111.172C105.317 110.909 105.17 110.609 105.109 110.283C105.049 109.957 105.083 109.635 105.209 109.318C105.335 109 105.538 108.716 105.833 108.467C106.128 108.217 106.44 108.056 106.778 107.976C107.116 107.895 107.449 107.908 107.77 108.005C108.091 108.103 108.372 108.289 108.611 108.551C108.849 108.814 108.996 109.114 109.057 109.44C109.113 109.766 109.083 110.088 108.957 110.406C108.832 110.723 108.628 111.007 108.338 111.256C108.047 111.506 107.731 111.667 107.393 111.748L107.389 111.752ZM108.06 110.211C108.117 110.05 108.125 109.885 108.086 109.711C108.047 109.538 107.961 109.377 107.826 109.224C107.692 109.072 107.54 108.966 107.367 108.907C107.198 108.848 107.029 108.831 106.856 108.865C106.687 108.899 106.531 108.97 106.392 109.093C106.253 109.212 106.158 109.351 106.102 109.512C106.045 109.673 106.037 109.838 106.076 110.012C106.115 110.185 106.201 110.346 106.336 110.499C106.47 110.651 106.622 110.757 106.795 110.816C106.964 110.875 107.133 110.892 107.306 110.859C107.48 110.825 107.631 110.753 107.77 110.63C107.909 110.507 108.004 110.372 108.06 110.211Z" fill="white"/>
<path d="M3.15028 91.0724C2.42228 90.6109 1.51228 90.2257 0.706278 90.0902C-0.476722 89.8955 -0.104055 88.0667 1.33894 88.3376C2.26628 88.5112 3.33228 88.8202 4.22061 89.3028C4.85328 89.6288 4.93128 90.3061 4.67561 90.7464C4.41994 91.2078 3.80894 91.4788 3.15461 91.0724H3.15028ZM3.15028 97.126C1.59028 97.6256 0.940278 95.547 2.50028 95.1406C6.42628 94.0992 10.8029 89.8616 12.8743 86.0262C13.5243 84.8324 15.4959 85.6198 14.6293 87.1438C12.1029 91.555 7.62661 95.6782 3.15028 97.126ZM5.43828 87.6434C4.82728 87.0253 4.03861 86.4665 3.28894 86.1575C2.16661 85.713 2.95528 83.9985 4.29428 84.5784C5.16094 84.9637 6.16628 85.5225 6.91594 86.1786C7.44894 86.6401 7.37094 87.2962 7.01561 87.6815C6.66028 88.0667 5.97128 88.181 5.43828 87.6434Z" fill="white"/>
<path d="M18.928 92.8287C20.7827 91.7111 22.2993 89.7087 23.1097 87.6852C23.7033 86.1823 25.6923 87.1856 25.103 88.4556C23.959 90.8856 22.4207 93.0234 20.1717 94.5643C18.85 95.4703 17.5673 93.6584 18.928 92.8287ZM32.3223 93.6372C31.7287 91.7873 29.796 89.3573 28.5133 88.2821C27.5687 87.4904 28.8903 86.1061 30.0733 87.1264C31.7893 88.6123 33.9993 91.0972 34.4717 92.871C34.866 94.3569 32.7947 95.1443 32.3223 93.6415V93.6372ZM30.3507 86.0045C29.3453 85.5981 30.134 84.4255 31.0397 84.7515C31.5727 84.942 32.5607 85.4627 32.994 85.9283C33.761 86.7369 32.617 87.8926 31.967 87.1433C31.7113 86.8343 30.745 86.1781 30.3507 86.0045ZM32.1447 84.3493C31.1393 83.9641 31.85 82.7872 32.7773 83.0793C33.3103 83.2529 34.3157 83.7524 34.7707 84.1969C35.5593 84.9674 34.4543 86.1612 33.7827 85.4288C33.5053 85.1409 32.539 84.5059 32.1447 84.3493Z" fill="white"/>
<path d="M43.329 91.0722C42.601 90.6107 41.691 90.2255 40.885 90.09C39.702 89.8953 40.0747 88.0665 41.5177 88.3374C42.445 88.511 43.511 88.82 44.3993 89.3026C45.032 89.6286 45.11 90.3059 44.8543 90.7462C44.5987 91.2076 43.9877 91.4786 43.3377 91.0722H43.329ZM43.329 97.1258C41.769 97.6254 41.119 95.5468 42.679 95.1404C46.605 94.099 50.9817 89.8614 53.053 86.026C53.703 84.8322 55.6747 85.6196 54.808 87.1436C52.2817 91.5548 47.8053 95.678 43.329 97.1258ZM45.617 87.6432C45.006 87.0251 44.2173 86.4663 43.4677 86.1573C42.341 85.7128 43.134 83.9983 44.473 84.5782C45.3397 84.9635 46.345 85.5223 47.0947 86.1784C47.6277 86.6399 47.5497 87.296 47.1943 87.6813C46.839 88.0665 46.15 88.1808 45.617 87.6432ZM49.8983 84.138C48.893 83.7316 49.6817 82.5759 50.5873 82.9061C51.1203 83.1008 52.104 83.6003 52.5417 84.0618C53.313 84.8703 52.1647 86.0472 51.5147 85.2937C51.259 84.9846 50.2927 84.3115 49.8983 84.138ZM51.6923 82.4997C50.687 82.1144 51.3977 80.9376 52.325 81.2297C52.858 81.4032 53.8633 81.8858 54.3183 82.3303C55.107 83.1008 54.002 84.3158 53.3303 83.5834C53.053 83.2955 52.0867 82.6605 51.6923 82.5039V82.4997Z" fill="white"/>
<path d="M68.458 93.9463C69.68 93.9844 69.5803 95.682 68.419 95.6439C65.52 95.5465 61.5723 95.5296 58.9723 95.7031C57.8067 95.7793 57.6897 94.0267 58.9117 93.9886C60.2333 93.9505 62.166 93.9124 64.1593 93.9124C64.3977 93.0446 64.6707 91.9482 64.7703 91.3513C64.831 91.0634 64.7487 90.8898 64.376 90.8898C63.5483 90.8898 62.205 90.8687 60.905 90.9279C59.644 90.9872 59.6223 89.3108 60.7663 89.2727C62.504 89.2134 64.298 89.2515 65.2817 89.2939C66.5643 89.3531 66.976 90.2379 66.7593 91.2412C66.56 92.0879 66.3043 93.0912 66.0487 93.9209C66.898 93.9209 67.704 93.9421 68.4537 93.959L68.458 93.9463Z" fill="white"/>
<path d="M81.952 84.6376C82.8013 84.5784 83.7677 84.5022 84.5563 84.4641C86.073 84.3879 87.3947 85.4293 86.6667 86.7966C84.2617 91.2882 81.536 95.1998 75.9937 97.3376C74.3167 97.9726 73.5063 96.0846 75.1443 95.5258C79.5253 94.0399 82.7797 90.1875 84.24 86.9109C84.396 86.5426 84.24 86.1786 83.7677 86.1997C82.94 86.2209 81.497 86.3521 80.613 86.4495C79.2697 88.1852 77.5363 90.2087 76.1757 91.1146C74.854 91.9825 73.6883 90.323 75.0317 89.5144C76.9253 88.3799 79.4907 84.8324 80.3963 83.3084C81.0463 82.2289 83.018 83.156 82.0907 84.4471L81.952 84.6376Z" fill="white"/>
<path d="M94.081 89.0486C93.2923 88.4517 92.6423 88.1427 91.793 87.8548C91.4377 87.7405 91.2817 87.4696 91.2817 87.1987C91.2817 86.7542 91.6977 86.2546 92.2697 86.2546C92.7247 86.2546 94.263 86.6991 95.1687 87.3553C95.485 87.567 95.602 87.876 95.602 88.1639C95.602 88.7227 95.1687 89.2645 94.6357 89.2645C94.458 89.2645 94.2803 89.2053 94.0853 89.0529L94.081 89.0486ZM92.6813 97.7016C92.131 97.7016 91.637 97.2782 91.637 96.7575C91.637 96.5628 91.6977 96.3723 91.8537 96.1776C92.9587 94.8102 94.003 92.7274 94.497 91.4743C94.653 91.0891 94.9693 90.9155 95.3073 90.9155C95.8013 90.9155 96.2953 91.2627 96.2953 91.8384C96.2953 92.321 95.0127 95.3648 93.652 97.1766C93.3747 97.5619 93.0193 97.6973 92.6857 97.6973L92.6813 97.7016ZM94.7527 84.7899C94.042 83.9602 93.3703 83.558 92.6597 83.1728C92.365 83.0204 92.2437 82.8045 92.2437 82.5928C92.2437 82.1314 92.7377 81.6699 93.3097 81.6699C93.7647 81.6699 96.447 82.9611 96.447 84.0406C96.447 84.6206 95.953 85.1413 95.42 85.1413C95.1817 85.1413 94.9477 85.027 94.7483 84.7941L94.7527 84.7899ZM104.338 83.7527C104.338 84.1972 104.316 84.8111 104.316 85.5053C104.81 85.5053 105.283 85.5265 105.738 85.5265C106.821 85.5477 107.87 86.2208 107.909 87.7405C107.93 88.8962 107.948 90.3821 107.948 91.8088C107.948 92.9856 107.926 94.1202 107.909 95.0261C107.87 96.3765 107.081 97.3375 105.699 97.4137C104.693 97.473 103.549 97.4899 102.444 97.4899C101.339 97.4899 100.312 97.4687 99.4847 97.4137C97.9247 97.3163 97.136 96.5078 97.097 95.0811C97.0753 94.1371 97.0753 93.0576 97.0753 91.9612C97.0753 90.4583 97.0753 88.9174 97.097 87.6262C97.1187 86.3943 97.9853 85.5646 99.3243 85.5265C99.6407 85.5265 99.9743 85.5053 100.312 85.5053V83.7527H97.3353C96.8023 83.7527 96.525 83.3294 96.525 82.8849C96.525 82.4404 96.8023 82.0382 97.3353 82.0382H107.631C108.164 82.0382 108.42 82.4616 108.42 82.9061C108.42 83.3506 108.164 83.7527 107.631 83.7527H104.338ZM102.739 86.9701H101.833C101.677 90.67 99.7013 91.5759 99.268 91.5759C99.0687 91.5759 98.9127 91.5167 98.774 91.4024V92.6935H106.193V91.3431C106.193 90.2636 106.193 89.1672 106.171 88.2993C106.149 87.2029 105.794 87.0082 104.949 86.987C104.693 86.987 104.416 86.9658 104.121 86.9658C104.121 88.0665 104.1 89.1629 104.1 89.3534C104.1 89.6032 104.16 89.7217 104.394 89.7217C104.728 89.7217 104.828 89.5482 104.828 88.5449C104.828 88.1766 105.083 88.0072 105.361 88.0072C105.677 88.0072 105.993 88.2189 105.993 88.5449V88.6973C105.993 89.582 105.954 90.9917 104.199 90.9917C103.034 90.9917 102.739 90.5303 102.739 89.3365V86.9658V86.9701ZM100.078 86.987C99.0903 87.0082 98.8347 87.313 98.8173 88.2993C98.8173 88.7989 98.7957 89.5143 98.7957 90.3017C100.018 89.7048 100.395 88.3374 100.451 86.987H100.078ZM106.171 94.1371H98.7957C98.7957 94.2895 98.8173 94.4461 98.8173 94.5816C98.878 95.8516 99.1727 95.8516 102.466 95.8516C103.294 95.8516 104.16 95.8516 104.932 95.8304C105.837 95.8093 106.154 95.3309 106.175 94.5393V94.1329L106.171 94.1371ZM102.722 85.5053C102.722 84.8111 102.743 84.193 102.743 83.7527H101.916V85.5053H102.726H102.722Z" fill="white"/>
<path d="M122.703 90.1667C122.503 90.4757 122.287 90.7847 122.07 91.0895C123.214 91.0684 124.635 91.0684 125.896 91.0684H127.335C128.501 91.0895 129.129 91.7626 129.129 92.9945C129.129 93.765 128.891 95.3821 128.596 96.1145C128.085 97.4057 127.019 98.0026 125.697 98.0026C124.375 98.0026 123.903 97.7316 123.903 97.0374C123.903 96.9781 123.903 96.9231 123.925 96.8638C122.919 97.7697 121.992 98.2142 121.615 98.2142C121.082 98.2142 120.727 97.8078 120.727 97.4057C120.727 97.1559 120.865 96.885 121.199 96.7326C123.153 95.7674 124.258 94.4762 125.125 92.4146H123.981C122.326 95.4033 119.383 97.4057 118.439 97.4057C117.906 97.4057 117.572 96.9823 117.572 96.559C117.572 96.2881 117.711 96.0383 118.027 95.9028C119.821 95.1493 121.182 94.0148 122.17 92.4146C121.754 92.4146 121.342 92.4357 120.965 92.4357C119.899 93.5745 117.927 95.0392 117.256 95.0392C116.744 95.0392 116.367 94.6159 116.367 94.2095C116.367 93.9767 116.506 93.7481 116.801 93.5914C118.634 92.6686 119.778 91.6653 120.805 90.1624H118.989C119.05 90.2767 119.089 90.3953 119.089 90.5307C119.089 90.8186 118.933 91.1276 118.538 91.3393C117.078 92.0928 113.941 93.4771 113.23 93.4771C112.68 93.4771 112.381 93.0538 112.381 92.6305C112.381 92.2833 112.58 91.9193 113.031 91.8007C113.663 91.6272 114.313 91.4155 114.946 91.2038L114.924 87.0213H113.464C112.914 87.0213 112.654 86.6361 112.654 86.2508C112.654 85.8275 112.948 85.4042 113.464 85.4042H114.924V82.2038C114.924 81.645 115.379 81.374 115.83 81.374C116.281 81.374 116.757 81.645 116.757 82.2038V85.4042H118.101C118.612 85.4042 118.872 85.8106 118.872 86.2127C118.872 86.6149 118.616 87.0213 118.101 87.0213H116.74V90.4884C117.173 90.2937 117.568 90.1201 117.945 89.9296C118.044 89.8915 118.122 89.8534 118.2 89.8322C118.122 89.7179 118.083 89.5825 118.083 89.447C118.083 89.0618 118.378 88.6765 118.911 88.6765H129.207C129.74 88.6765 129.996 89.0448 129.996 89.4089C129.996 89.7941 129.74 90.1624 129.207 90.1624H122.698L122.703 90.1667ZM125.797 87.8764C125.147 87.9145 124.414 87.9357 123.686 87.9357C120.493 87.9357 119.7 87.8214 119.7 85.6243C119.7 84.8708 119.739 83.986 119.778 83.2917C119.817 82.4451 120.467 81.6365 121.71 81.5942C122.382 81.573 123.071 81.5561 123.743 81.5561C124.414 81.5561 125.103 81.5772 125.736 81.5942C126.724 81.6323 127.569 82.3646 127.63 83.1563C127.69 83.7743 127.708 84.5236 127.708 85.2391C127.708 85.5862 127.708 85.9333 127.686 86.2424C127.647 87.2457 126.915 87.8214 125.792 87.8807L125.797 87.8764ZM125.935 85.3872H121.381C121.381 86.526 121.403 86.5641 123.608 86.5641C125.814 86.5641 125.918 86.5048 125.935 85.891V85.3915V85.3872ZM125.896 83.7108C125.857 82.9785 125.74 82.9573 123.725 82.9573C121.71 82.9573 121.476 82.9573 121.437 83.7278L121.416 84.0368H125.914L125.892 83.7108H125.896ZM124.614 96.1822C124.653 96.1822 124.692 96.1611 124.752 96.1611C124.813 96.1611 124.869 96.1822 124.952 96.1992C125.229 96.2584 125.463 96.2965 125.68 96.2965C126.451 96.2965 127.179 96.0087 127.417 93.1554V93.058C127.417 92.6516 127.218 92.4611 126.884 92.423C126.39 93.7735 125.602 95.1027 124.614 96.1822Z" fill="white"/>
<path d="M75.3653 58.6445C75.0577 58.6445 74.6937 59.0975 74.6937 59.6563V62.6958C74.6677 67.7589 69.5847 72.4113 65 72.4113C60.1727 72.4113 55.1547 67.1451 55.2587 62.336V59.6605C55.2587 59.1017 55.1763 58.6657 54.6347 58.6488C54.0453 58.6276 53.8243 59.1017 53.8243 59.6605V61.6163C53.8243 68.0849 58.4133 72.7796 64.155 73.7025V75.472C63.583 75.472 58.7773 76.3187 58.7773 76.8775H71.214C71.214 76.3187 66.4127 75.472 65.8407 75.472V73.7279C71.4783 72.9659 76.1713 68.5675 76.1713 62.1159V59.6648C76.1713 59.106 75.8463 58.653 75.361 58.653L75.3653 58.6445Z" fill="white"/>
<path d="M65 46.1606C68.211 46.1606 70.811 48.8784 70.811 52.2355H65.6457C65.2903 52.2355 65 52.4598 65 52.7392V53.3277C65 53.6071 65.2903 53.8314 65.6457 53.8314H70.811V56.4942H65.6457C65.2903 56.4942 65 56.7186 65 56.998V57.5864C65 57.8658 65.2903 58.0902 65.6457 58.0902H70.811V60.7529H65.6457C65.2903 60.7529 65 60.9773 65 61.2567V61.8451C65 62.1245 65.2903 62.3489 65.6457 62.3489H70.811C70.811 65.7059 68.211 68.4237 65 68.4237C61.789 68.4237 59.189 65.7059 59.189 62.3489V52.227C59.189 48.87 61.789 46.1522 65 46.1522M65 44.8271C61.0437 44.8271 57.824 48.1503 57.824 52.2355V62.3574C57.824 66.4425 61.0437 69.7657 65 69.7657C68.9563 69.7657 72.176 66.4425 72.176 62.3574V52.2355C72.176 48.1503 68.9563 44.8271 65 44.8271Z" fill="white"/>
<path d="M66.0357 23.707H64.337V36.4705H66.0357V23.707Z" fill="white"/>
<path d="M57.4933 26.4094L55.8525 26.8389L58.7337 37.3437L60.3745 36.9142L57.4933 26.4094Z" fill="white"/>
<path d="M48.4914 27.723L47.0203 28.5527L53.5528 39.6062L55.0239 38.7765L48.4914 27.723Z" fill="white"/>
<path d="M42.8548 34.6L41.6536 35.7734L49.1485 43.0953L50.3496 41.9219L42.8548 34.6Z" fill="white"/>
<path d="M35.3543 39.7689L34.505 41.2061L45.8196 47.5878L46.6689 46.1507L35.3543 39.7689Z" fill="white"/>
<path d="M33.5671 48.3687L33.1278 49.9717L43.7882 52.7647L44.2274 51.1616L33.5671 48.3687Z" fill="white"/>
<path d="M96.8698 50.4555L96.4302 48.8525L85.7692 51.6432L86.2089 53.2461L96.8698 50.4555Z" fill="white"/>
<path d="M95.6149 41.6334L94.7656 40.1963L83.451 46.578L84.3003 48.0152L95.6149 41.6334Z" fill="white"/>
<path d="M88.6427 36.0562L87.4415 34.8828L79.8792 42.2706L81.0804 43.444L88.6427 36.0562Z" fill="white"/>
<path d="M83.2825 28.7985L81.8114 27.9688L75.2789 39.0223L76.75 39.852L83.2825 28.7985Z" fill="white"/>
<path d="M74.43 27.2274L72.7892 26.7979L69.9797 37.041L71.6205 37.4705L74.43 27.2274Z" fill="white"/>
<path d="M5.01377 69.583L4.02577 72.559H3.10277L2.51777 70.7472L1.90677 72.559H0.983773L-0.00422668 69.583H0.884107L1.49944 71.4838L2.14511 69.583H2.93811L3.55344 71.5007L4.19477 69.583H5.01811H5.01377Z" fill="white"/>
<path d="M8.70133 71.9071V72.559H6.25733V69.583H8.645V70.2349H7.111V70.7345H8.463V71.3652H7.111V71.9071H8.70133Z" fill="white"/>
<path d="M12.974 71.2848C13.0737 71.4118 13.1213 71.5642 13.1213 71.742C13.1213 72.0045 13.013 72.2034 12.8007 72.3474C12.5883 72.4913 12.2763 72.559 11.869 72.559H10.2223V69.583H11.778C12.168 69.583 12.4627 69.655 12.6663 69.7947C12.87 69.9344 12.9697 70.1249 12.9697 70.3619C12.9697 70.5016 12.935 70.6286 12.8613 70.7429C12.792 70.853 12.688 70.9419 12.558 71.0096C12.7313 71.0689 12.87 71.162 12.9653 71.289L12.974 71.2848ZM11.076 70.1926V70.7683H11.6653C11.9557 70.7683 12.0987 70.671 12.0987 70.4805C12.0987 70.29 11.9557 70.1968 11.6653 70.1968H11.076V70.1926ZM12.2503 71.6489C12.2503 71.4457 12.0987 71.3483 11.7997 71.3483H11.076V71.9537H11.7997C12.103 71.9537 12.2503 71.8521 12.2503 71.6531V71.6489Z" fill="white"/>
<path d="M17.9313 72.4194C17.6757 72.2881 17.4763 72.1061 17.3333 71.869C17.1903 71.6362 17.1167 71.3695 17.1167 71.0689C17.1167 70.7684 17.1903 70.5059 17.3333 70.2688C17.4763 70.0318 17.68 69.8497 17.9313 69.7185C18.187 69.5873 18.473 69.5195 18.7893 69.5195C19.0667 69.5195 19.318 69.5661 19.5433 69.6635C19.7687 69.7608 19.9507 69.9005 20.1023 70.0783L19.5563 70.5652C19.357 70.3323 19.1187 70.218 18.837 70.218C18.6723 70.218 18.525 70.2519 18.395 70.3239C18.265 70.3958 18.1653 70.4932 18.096 70.6244C18.0267 70.7557 17.9877 70.8996 17.9877 71.0689C17.9877 71.2383 18.0223 71.3864 18.096 71.5134C18.1653 71.6404 18.2693 71.742 18.395 71.814C18.525 71.886 18.6723 71.9198 18.837 71.9198C19.1187 71.9198 19.357 71.8055 19.5563 71.5727L20.1023 72.0595C19.955 72.2416 19.7687 72.3813 19.5433 72.4744C19.318 72.5675 19.071 72.6183 18.7893 72.6183C18.4687 72.6183 18.1827 72.5548 17.9313 72.4194Z" fill="white"/>
<path d="M22.945 71.7674H22.477V72.559H21.6147V69.583H23.0057C23.283 69.583 23.5213 69.6296 23.725 69.7185C23.9287 69.8074 24.0847 69.9344 24.193 70.0995C24.3013 70.2646 24.3577 70.4593 24.3577 70.6837C24.3577 70.908 24.3057 71.0858 24.2017 71.2467C24.0977 71.4076 23.9503 71.5303 23.7597 71.6235L24.4183 72.559H23.4953L22.9407 71.7674H22.945ZM23.3523 70.3619C23.2613 70.2857 23.127 70.2476 22.9537 70.2476H22.477V71.1197H22.9537C23.1313 71.1197 23.2657 71.0816 23.3523 71.0054C23.4433 70.9292 23.4867 70.8234 23.4867 70.6837C23.4867 70.544 23.4433 70.4381 23.3523 70.3619Z" fill="white"/>
<path d="M28.4093 71.9071V72.559H25.9653V69.583H28.353V70.2349H26.819V70.7345H28.171V71.3652H26.819V71.9071H28.4093Z" fill="white"/>
<path d="M32.1447 71.983H30.8577L30.6193 72.5629H29.7397L31.083 69.5869H31.9323L33.28 72.5629H32.383L32.1447 71.983ZM31.8933 71.3607L31.5033 70.4082L31.1133 71.3607H31.8977H31.8933Z" fill="white"/>
<path d="M35.0437 70.2519H34.1077V69.583H36.8333V70.2519H35.9017V72.559H35.0393V70.2519H35.0437Z" fill="white"/>
<path d="M38.7833 72.4197C38.5277 72.2885 38.324 72.1022 38.1767 71.8694C38.0293 71.6365 37.9557 71.3698 37.9557 71.0735C37.9557 70.7772 38.0293 70.5147 38.1767 70.2776C38.324 70.0448 38.5233 69.8585 38.7833 69.7273C39.039 69.5961 39.3293 69.5283 39.65 69.5283C39.9707 69.5283 40.261 69.5961 40.5167 69.7273C40.7723 69.8585 40.976 70.0448 41.1233 70.2776C41.2707 70.5147 41.3443 70.7772 41.3443 71.0735C41.3443 71.3698 41.2707 71.6323 41.1233 71.8694C40.976 72.1064 40.7767 72.2885 40.5167 72.4197C40.261 72.5509 39.9707 72.6186 39.65 72.6186C39.3293 72.6186 39.039 72.5509 38.7833 72.4197ZM40.0703 71.8143C40.196 71.7424 40.2913 71.645 40.365 71.5137C40.4387 71.3867 40.4733 71.2386 40.4733 71.0693C40.4733 70.8999 40.4387 70.756 40.365 70.6248C40.2913 70.4978 40.1917 70.3961 40.0703 70.3242C39.9447 70.2522 39.806 70.2183 39.6543 70.2183C39.5027 70.2183 39.3597 70.2522 39.2383 70.3242C39.1127 70.3961 39.0173 70.4935 38.9437 70.6248C38.87 70.756 38.8353 70.8999 38.8353 71.0693C38.8353 71.2386 38.87 71.3867 38.9437 71.5137C39.0173 71.6407 39.117 71.7424 39.2383 71.8143C39.364 71.8863 39.5027 71.9202 39.6543 71.9202C39.806 71.9202 39.949 71.8863 40.0703 71.8143Z" fill="white"/>
<path d="M43.9963 71.7674H43.5283V72.559H42.666V69.583H44.057C44.3343 69.583 44.5727 69.6296 44.7763 69.7185C44.98 69.8074 45.136 69.9344 45.2443 70.0995C45.3527 70.2646 45.409 70.4593 45.409 70.6837C45.409 70.908 45.357 71.0858 45.253 71.2467C45.149 71.4076 45.0017 71.5303 44.811 71.6235L45.4697 72.559H44.5467L43.992 71.7674H43.9963ZM44.408 70.3619C44.317 70.2857 44.1827 70.2476 44.0093 70.2476H43.5327V71.1197H44.0093C44.187 71.1197 44.3213 71.0816 44.408 71.0054C44.499 70.9292 44.5423 70.8234 44.5423 70.6837C44.5423 70.544 44.499 70.4381 44.408 70.3619Z" fill="white"/>
<path d="M45.474 65.1934H0.0259972V66.0443H45.474V65.1934Z" fill="white"/>
<path d="M45.474 76.0049H0.0259972V76.8558H45.474V76.0049Z" fill="white"/>
<path d="M85.4013 72.5213C85.1457 72.39 84.942 72.2037 84.7947 71.9709C84.6473 71.7381 84.5737 71.4714 84.5737 71.1751C84.5737 70.8787 84.6473 70.6163 84.7947 70.3792C84.942 70.1464 85.1413 69.9601 85.4013 69.8288C85.657 69.6976 85.9473 69.6299 86.268 69.6299C86.5887 69.6299 86.879 69.6976 87.1347 69.8288C87.3903 69.9601 87.594 70.1464 87.7413 70.3792C87.8887 70.6163 87.9623 70.8787 87.9623 71.1751C87.9623 71.4714 87.8887 71.7338 87.7413 71.9709C87.594 72.208 87.3947 72.39 87.1347 72.5213C86.879 72.6525 86.5887 72.7202 86.268 72.7202C85.9473 72.7202 85.657 72.6525 85.4013 72.5213ZM86.684 71.9201C86.8097 71.8482 86.905 71.7508 86.9787 71.6195C87.0523 71.4925 87.087 71.3444 87.087 71.1751C87.087 71.0057 87.0523 70.8618 86.9787 70.7306C86.905 70.6036 86.8053 70.5019 86.684 70.43C86.5583 70.358 86.4197 70.3241 86.268 70.3241C86.1163 70.3241 85.9733 70.358 85.852 70.43C85.7263 70.5019 85.631 70.5993 85.5573 70.7306C85.4837 70.8618 85.449 71.0057 85.449 71.1751C85.449 71.3444 85.4837 71.4925 85.5573 71.6195C85.631 71.7465 85.7307 71.8482 85.852 71.9201C85.9777 71.9921 86.1163 72.026 86.268 72.026C86.4197 72.026 86.5627 71.9921 86.684 71.9201Z" fill="white"/>
<path d="M92.2697 69.6846V72.6606H91.559L90.2157 71.0731V72.6606H89.3707V69.6846H90.0813L91.4247 71.2721V69.6846H92.2697Z" fill="white"/>
<path d="M93.9207 69.6846H94.783V71.9917H96.2347V72.6606H93.9207V69.6846Z" fill="white"/>
<path d="M97.7946 69.6846H98.6562V72.6606H97.7946V69.6846Z" fill="white"/>
<path d="M103.298 69.6846V72.6606H102.587L101.244 71.0731V72.6606H100.399V69.6846H101.11L102.453 71.2721V69.6846H103.298Z" fill="white"/>
<path d="M107.306 72.0126V72.6645H104.862V69.6885H107.25V70.3404H105.716V70.8399H107.068V71.4707H105.716V72.0126H107.306Z" fill="white"/>
<path d="M111.059 72.631C110.825 72.5717 110.639 72.4913 110.496 72.3939L110.777 71.7716C110.912 71.8605 111.072 71.9283 111.25 71.9833C111.427 72.0383 111.605 72.0637 111.778 72.0637C112.108 72.0637 112.272 71.9833 112.272 71.8224C112.272 71.7378 112.225 71.6743 112.129 71.6319C112.034 71.5896 111.882 71.5473 111.674 71.5007C111.445 71.4541 111.254 71.3991 111.098 71.3441C110.942 71.289 110.812 71.2001 110.704 71.0774C110.595 70.9546 110.539 70.7895 110.539 70.5863C110.539 70.4043 110.591 70.2434 110.691 70.0952C110.79 69.9513 110.942 69.8328 111.146 69.7481C111.349 69.6634 111.596 69.6211 111.887 69.6211C112.086 69.6211 112.285 69.6423 112.48 69.6846C112.675 69.7269 112.844 69.7947 112.992 69.8793L112.727 70.5059C112.437 70.3535 112.155 70.2773 111.882 70.2773C111.709 70.2773 111.588 70.3027 111.51 70.3535C111.432 70.4043 111.393 70.4678 111.393 70.5482C111.393 70.6286 111.44 70.6879 111.531 70.726C111.622 70.7641 111.774 70.8064 111.978 70.8488C112.212 70.8953 112.402 70.9504 112.554 71.0054C112.706 71.0604 112.84 71.1493 112.948 71.2679C113.061 71.3906 113.117 71.5515 113.117 71.7589C113.117 71.9367 113.065 72.0976 112.966 72.2415C112.866 72.3855 112.71 72.4998 112.511 72.5887C112.307 72.6733 112.06 72.7199 111.77 72.7199C111.523 72.7199 111.284 72.6903 111.05 72.631H111.059Z" fill="white"/>
<path d="M116.519 72.0845H115.232L114.994 72.6645H114.114L115.457 69.6885H116.307L117.654 72.6645H116.757L116.519 72.0845ZM116.263 71.4622L115.873 70.5097L115.483 71.4622H116.268H116.263Z" fill="white"/>
<path d="M118.941 69.6846H119.804V71.9917H121.255V72.6606H118.941V69.6846Z" fill="white"/>
<path d="M123.218 72.5213C122.963 72.39 122.759 72.2037 122.612 71.9709C122.464 71.7381 122.391 71.4714 122.391 71.1751C122.391 70.8787 122.464 70.6163 122.612 70.3792C122.759 70.1464 122.958 69.9601 123.218 69.8288C123.474 69.6976 123.764 69.6299 124.085 69.6299C124.406 69.6299 124.696 69.6976 124.952 69.8288C125.207 69.9601 125.411 70.1464 125.558 70.3792C125.706 70.6163 125.779 70.8787 125.779 71.1751C125.779 71.4714 125.706 71.7338 125.558 71.9709C125.411 72.208 125.212 72.39 124.952 72.5213C124.696 72.6525 124.406 72.7202 124.085 72.7202C123.764 72.7202 123.474 72.6525 123.218 72.5213ZM124.505 71.9201C124.631 71.8482 124.726 71.7508 124.8 71.6195C124.874 71.4925 124.908 71.3444 124.908 71.1751C124.908 71.0057 124.874 70.8618 124.8 70.7306C124.726 70.6036 124.627 70.5019 124.505 70.43C124.38 70.358 124.241 70.3241 124.089 70.3241C123.938 70.3241 123.795 70.358 123.673 70.43C123.548 70.5019 123.452 70.5993 123.379 70.7306C123.305 70.8618 123.27 71.0057 123.27 71.1751C123.27 71.3444 123.305 71.4925 123.379 71.6195C123.452 71.7465 123.552 71.8482 123.673 71.9201C123.799 71.9921 123.938 72.026 124.089 72.026C124.241 72.026 124.384 71.9921 124.505 71.9201Z" fill="white"/>
<path d="M130 69.6846V72.6606H129.289L127.946 71.0731V72.6606H127.101V69.6846H127.812L129.155 71.2721V69.6846H130Z" fill="white"/>
<path d="M130 65.1934H84.5736V66.0443H130V65.1934Z" fill="white"/>
<path d="M130 76.0049H84.5737V76.8558H130V76.0049Z" fill="white"/>
<path d="M42.9303 105.926C42.653 105.854 42.4277 105.761 42.25 105.643L42.588 104.897C42.7527 105.003 42.939 105.088 43.1557 105.151C43.3723 105.215 43.5847 105.249 43.7927 105.249C44.1913 105.249 44.3863 105.151 44.3863 104.957C44.3863 104.855 44.33 104.779 44.2173 104.728C44.1047 104.677 43.9227 104.627 43.6713 104.571C43.394 104.512 43.1687 104.453 42.9823 104.385C42.796 104.317 42.64 104.212 42.5057 104.068C42.3757 103.92 42.3063 103.725 42.3063 103.475C42.3063 103.259 42.367 103.06 42.4883 102.887C42.6097 102.713 42.7917 102.573 43.0343 102.472C43.277 102.37 43.5717 102.319 43.9227 102.319C44.161 102.319 44.3993 102.345 44.6333 102.4C44.8673 102.455 45.071 102.531 45.2487 102.633L44.928 103.382C44.5813 103.2 44.2433 103.107 43.914 103.107C43.7103 103.107 43.5587 103.136 43.4633 103.196C43.368 103.255 43.3203 103.331 43.3203 103.428C43.3203 103.526 43.3767 103.594 43.4893 103.644C43.602 103.695 43.7797 103.742 44.0267 103.793C44.304 103.852 44.5337 103.911 44.72 103.979C44.9063 104.047 45.0623 104.152 45.1967 104.296C45.331 104.44 45.396 104.635 45.396 104.885C45.396 105.101 45.3353 105.291 45.214 105.465C45.0927 105.638 44.9107 105.778 44.668 105.88C44.4253 105.985 44.1263 106.036 43.7797 106.036C43.485 106.036 43.1947 106.002 42.9173 105.93L42.9303 105.926Z" fill="white"/>
<path d="M47.6623 102.392H48.6971V105.96H47.6623V102.392Z" fill="white"/>
<path d="M54.6823 102.392V105.96H53.833L52.221 104.06V105.96H51.207V102.392H52.0563L53.6683 104.292V102.392H54.6823Z" fill="white"/>
<path d="M57.876 105.796C57.5727 105.639 57.3343 105.419 57.1567 105.135C56.979 104.852 56.8967 104.534 56.8967 104.178C56.8967 103.823 56.9833 103.501 57.1567 103.222C57.33 102.942 57.5683 102.718 57.876 102.561C58.1837 102.405 58.526 102.324 58.9073 102.324C59.241 102.324 59.5443 102.383 59.8087 102.498C60.0773 102.612 60.2983 102.781 60.476 102.997L59.8173 103.577C59.579 103.298 59.293 103.158 58.955 103.158C58.7557 103.158 58.578 103.201 58.4263 103.285C58.2703 103.37 58.1533 103.488 58.0667 103.645C57.98 103.802 57.9367 103.979 57.9367 104.178C57.9367 104.377 57.98 104.555 58.0667 104.712C58.1533 104.868 58.2703 104.987 58.4263 105.072C58.5823 105.156 58.76 105.199 58.955 105.199C59.293 105.199 59.579 105.059 59.8173 104.78L60.476 105.36C60.2983 105.575 60.0773 105.745 59.8087 105.859C59.54 105.973 59.241 106.033 58.9073 106.033C58.526 106.033 58.1793 105.952 57.876 105.796Z" fill="white"/>
<path d="M65.6457 105.181V105.96H62.712V102.392H65.5763V103.171H63.7347V103.772H65.3597V104.525H63.7347V105.177H65.6457V105.181Z" fill="white"/>
<path d="M73.1943 105.16V105.96H70.3473V105.329L71.7167 104.08C71.8467 103.958 71.9377 103.852 71.981 103.767C72.0243 103.682 72.0503 103.594 72.0503 103.505C72.0503 103.39 72.0113 103.297 71.929 103.234C71.8467 103.17 71.734 103.136 71.578 103.136C71.4437 103.136 71.318 103.166 71.2053 103.225C71.0927 103.285 70.9973 103.369 70.928 103.484L70.161 103.064C70.304 102.832 70.5033 102.65 70.7633 102.518C71.0233 102.387 71.3267 102.319 71.6777 102.319C71.955 102.319 72.202 102.362 72.4187 102.451C72.631 102.539 72.8 102.666 72.9213 102.832C73.0427 102.997 73.1033 103.187 73.1033 103.407C73.1033 103.602 73.06 103.784 72.9733 103.958C72.8867 104.127 72.722 104.322 72.4793 104.542L71.7903 105.164H73.1987L73.1943 105.16Z" fill="white"/>
<path d="M75.842 105.812C75.5993 105.664 75.4087 105.452 75.27 105.173C75.1313 104.894 75.062 104.559 75.062 104.174C75.062 103.789 75.1313 103.458 75.27 103.175C75.4087 102.891 75.5993 102.679 75.842 102.536C76.0847 102.387 76.362 102.315 76.6783 102.315C76.9947 102.315 77.2633 102.387 77.5103 102.536C77.753 102.684 77.9437 102.895 78.0823 103.175C78.221 103.454 78.2903 103.789 78.2903 104.174C78.2903 104.559 78.221 104.889 78.0823 105.173C77.9437 105.452 77.753 105.668 77.5103 105.812C77.2677 105.96 76.9903 106.032 76.6783 106.032C76.3663 106.032 76.0847 105.96 75.842 105.812ZM77.0943 104.957C77.1983 104.792 77.246 104.529 77.246 104.174C77.246 103.818 77.194 103.556 77.0943 103.391C76.9903 103.226 76.8517 103.145 76.6783 103.145C76.505 103.145 76.362 103.23 76.258 103.391C76.154 103.556 76.102 103.818 76.102 104.174C76.102 104.529 76.154 104.792 76.258 104.957C76.362 105.122 76.5007 105.203 76.6783 105.203C76.856 105.203 76.9903 105.122 77.0943 104.957Z" fill="white"/>
<path d="M82.823 105.16V105.96H79.976V105.329L81.3453 104.08C81.4753 103.958 81.5663 103.852 81.6097 103.767C81.653 103.682 81.679 103.594 81.679 103.505C81.679 103.39 81.64 103.297 81.5577 103.234C81.4753 103.17 81.3627 103.136 81.2067 103.136C81.0723 103.136 80.9467 103.166 80.834 103.225C80.7213 103.285 80.626 103.369 80.5567 103.484L79.7897 103.064C79.9327 102.832 80.132 102.65 80.392 102.518C80.652 102.387 80.9553 102.319 81.3063 102.319C81.5837 102.319 81.8307 102.362 82.0473 102.451C82.2597 102.539 82.4287 102.666 82.55 102.832C82.6713 102.997 82.732 103.187 82.732 103.407C82.732 103.602 82.6887 103.784 82.602 103.958C82.5153 104.127 82.3507 104.322 82.108 104.542L81.419 105.164H82.8273L82.823 105.16Z" fill="white"/>
<path d="M85.3667 105.812C85.124 105.664 84.9333 105.452 84.7947 105.173C84.656 104.894 84.5867 104.559 84.5867 104.174C84.5867 103.789 84.656 103.458 84.7947 103.175C84.9333 102.891 85.124 102.679 85.3667 102.536C85.6093 102.387 85.8867 102.315 86.203 102.315C86.5193 102.315 86.788 102.387 87.035 102.536C87.2777 102.684 87.4683 102.895 87.607 103.175C87.7457 103.454 87.815 103.789 87.815 104.174C87.815 104.559 87.7457 104.889 87.607 105.173C87.4683 105.452 87.2777 105.668 87.035 105.812C86.7923 105.96 86.515 106.032 86.203 106.032C85.891 106.032 85.6093 105.96 85.3667 105.812ZM86.6147 104.957C86.7187 104.792 86.7663 104.529 86.7663 104.174C86.7663 103.818 86.7143 103.556 86.6147 103.391C86.5107 103.226 86.372 103.145 86.1987 103.145C86.0253 103.145 85.8823 103.23 85.7783 103.391C85.6743 103.556 85.6223 103.818 85.6223 104.174C85.6223 104.529 85.6743 104.792 85.7783 104.957C85.8823 105.122 86.021 105.203 86.1987 105.203C86.3763 105.203 86.5107 105.122 86.6147 104.957Z" fill="white"/>
<path d="M39.2773 104.051H34.801V104.592H39.2773V104.051Z" fill="white"/>
<path d="M95.1947 104.051H90.7183V104.592H95.1947V104.051Z" fill="white"/>
</g>
<defs>
<clipPath id="clip0_178_1189">
<rect width="130" height="127" fill="white"/>
</clipPath>
</defs>
</svg>
