<svg width="180" height="180" viewBox="0 0 180 180" fill="none" xmlns="http://www.w3.org/2000/svg">
<mask id="mask0_321_8566" style="mask-type:alpha" maskUnits="userSpaceOnUse" x="0" y="0" width="180" height="180">
<circle cx="90" cy="90" r="90" fill="#262626"/>
</mask>
<g mask="url(#mask0_321_8566)">
<circle cx="90" cy="90" r="90" fill="#262626"/>
<path d="M39.5256 127.353C39.5877 127.865 39.6187 128.393 39.6187 128.936C39.6187 129.774 39.5411 130.581 39.417 131.326C39.898 131.543 40.3791 131.745 40.8756 131.962C41.698 132.319 42.5049 132.691 43.3738 133.064L48.9755 135.19L49.7824 135.329C50.2789 135.407 50.76 135.5 51.2565 135.577C53.6927 132.862 56.1133 130.146 58.5495 127.447C57.634 127.26 56.7185 127.09 55.803 126.903C55.7875 126.903 55.772 126.903 55.7409 126.903C55.7254 126.903 55.6944 126.903 55.6789 126.903C55.5858 126.888 55.5082 126.872 55.4151 126.857C54.2978 126.64 53.1651 126.407 52.0479 126.19C52.0013 126.19 47.9048 125.259 42.1325 123.924C41.9928 123.893 41.8687 123.862 41.729 123.831L39.5411 127.384L39.5256 127.353Z" fill="#FEAF86"/>
<path d="M119.408 217.399C125.925 213.737 127.492 207.08 128.718 200.672C135.995 162.546 130.952 125.771 115.761 90.2524C109.973 96.7385 107.382 111.247 98.9095 108.795C88.7768 105.863 101.175 93.8524 97.4043 86.0938C90.3751 84.3249 83.3303 82.5404 76.3011 80.7715C73.1046 87.0869 71.9874 94.1317 69.6133 100.649C66.5099 109.152 69.7219 120.014 60.4737 126.252C58.7824 126.299 57.1841 126.485 55.679 126.857C55.679 126.857 55.7255 126.857 55.741 126.857C55.7565 126.857 55.7721 126.857 55.8031 126.857C56.7186 127.043 57.6341 127.214 58.5496 127.4C56.1134 130.116 53.6928 132.831 51.2566 135.531C50.76 135.454 50.279 135.36 49.7825 135.283L48.9756 135.143C53.46 141.21 64.8961 143.135 60.5048 154.493C71.2115 174.37 72.3132 195.163 66.3392 216.608C67.534 217.88 68.7443 219.168 69.9391 220.441C86.6975 223.823 103.021 219.944 119.408 217.353V217.399Z" fill="#9C85D3"/>
<path d="M98.0405 70.8247C97.4198 75.4177 97.544 80.1194 97.4353 84.79C97.4353 85.2245 97.4353 85.659 97.4043 86.0935C101.175 93.852 88.7768 105.862 98.9095 108.795C107.382 111.247 109.973 96.7382 115.761 90.2521C121.456 74.7815 123.907 58.7835 122.371 42.3819C121.223 30.139 114.985 20.8753 102.649 17.9891C91.9423 15.4754 81.8717 17.384 75.5408 28.0131C100.927 39.7596 101.966 41.8854 98.0405 70.8402V70.8247Z" fill="#A26057"/>
<path d="M97.4042 86.1095C97.4197 85.6751 97.4197 85.2406 97.4352 84.8061C97.5594 80.1355 97.4352 75.4338 98.0404 70.8407C101.966 41.8704 100.911 39.7601 75.5407 28.0137C70.6063 31.4429 68.2166 36.5481 67.0994 42.1342C64.2443 56.3633 68.3408 69.0718 76.301 80.8027C83.3302 82.5716 90.375 84.3561 97.4042 86.125V86.1095Z" fill="#FEAE83"/>
<path d="M39.5259 127.353C39.3708 125.848 38.9673 124.56 38.4397 123.598C37.8656 122.558 37.1363 121.922 36.3294 121.922C34.5139 121.922 33.0398 125.057 33.0398 128.936C33.0398 131.388 33.6294 133.529 34.5139 134.786C35.026 135.515 35.6467 135.95 36.3139 135.95C37.7259 135.95 38.9363 134.01 39.3863 131.325C39.5104 130.581 39.588 129.774 39.588 128.936C39.588 128.393 39.557 127.865 39.4949 127.353H39.5259Z" fill="#FEAE83"/>
<path d="M129.128 68.9999C129.128 72.6833 131.043 75.6666 134.512 75.6666C137.98 75.6666 140.795 73.1666 141.692 68.9999C142.123 67.0016 143.005 65.7949 144.385 64.8333C147.975 62.3333 150.667 58.4866 150.667 53.9999C150.667 52.4678 150.365 50.9507 149.779 49.5353C149.192 48.1198 148.333 46.8337 147.249 45.7503C146.166 44.667 144.88 43.8076 143.465 43.2213C142.049 42.635 140.532 42.3333 139 42.3333C137.468 42.3333 135.951 42.635 134.535 43.2213C133.12 43.8076 131.834 44.667 130.75 45.7503C129.667 46.8337 128.808 48.1198 128.221 49.5353C127.635 50.9507 127.333 52.4678 127.333 53.9999" stroke="#FEAE83" stroke-width="1.5" stroke-linecap="round" stroke-linejoin="round"/>
<path d="M134 64C136.308 64 138.18 62.3217 138.18 60.25C138.18 58.1783 136.308 56.5 134 56.5C134 53.1383 134.773 49 139.017 49C142 49 143.75 51.29 144 54.25" stroke="#FEAE83" stroke-width="1.5" stroke-linecap="round" stroke-linejoin="round"/>
<path d="M158 50.877C159.16 53.8258 159.577 57.0147 159.214 60.1625C159.11 60.8786 158.946 61.5848 158.725 62.2738M162.012 48.0318C163.52 51.9745 164.066 56.2198 163.606 60.4157C163.472 61.3688 163.263 62.3097 162.98 63.2295M166.053 47C167.722 51.4676 168.331 56.262 167.83 61.0049C167.687 62.0818 167.458 63.1455 167.147 64.1861" stroke="#FEAE83" stroke-width="1.5" stroke-miterlimit="10" stroke-linecap="round"/>
<path d="M47.6832 76.1462C47.5878 75.9834 47.5179 75.8333 47.4903 75.7931C47.4352 74.2263 43.2937 73 37.9949 73C32.6961 73 28.5546 74.2263 28.5143 75.7931C28.4867 75.8333 28.4041 75.9834 28.3087 76.1462C25.2524 81.4745 20.1189 91.0526 20.1189 95.2497C20.1189 96.6388 55.8857 96.6388 55.8857 95.2497C55.8857 91.0526 50.7523 81.4723 47.6832 76.1441V76.1462Z" fill="#DCDBDA"/>
<path d="M39.1414 137.432C38.0114 124.774 38.8978 111.694 41.7857 98.5524L41.8109 98.4343H34.3295L34.3547 98.5524C37.2427 111.694 38.129 124.772 36.999 137.43C30.8408 137.548 25.9995 138.734 25.9995 140.183C25.9995 141.71 31.3722 142.949 37.9988 142.949C44.6254 142.949 49.9981 141.71 49.9981 140.183C49.9981 138.744 45.2324 137.563 39.1414 137.43V137.432Z" fill="#DCDBDA"/>
<path d="M37.9987 98.8346C28.4969 98.8346 20.7183 97.3102 20.0527 95.3755C20.0697 105.163 28.0984 113.092 38.0008 113.092C47.9032 113.092 55.9319 105.163 55.9489 95.3755C55.2812 97.308 47.5047 98.8346 38.0008 98.8346H37.9987Z" fill="#DCDBDA"/>
<g style="mix-blend-mode:multiply" opacity="0.3">
<path d="M20.0721 94.7808C20.0276 94.8886 20 94.9965 20 95.1065C20 95.1974 20.0212 95.2863 20.053 95.3751C20.053 95.3645 20.053 95.3561 20.053 95.3455C20.053 95.1615 20.0615 94.9732 20.0742 94.7808H20.0721Z" fill="#DCDBDA"/>
</g>
<g style="mix-blend-mode:multiply" opacity="0.3">
<path d="M55.9471 95.3751C55.9788 95.2863 56 95.1953 56 95.1065C56 94.9965 55.9725 94.8886 55.928 94.7808C55.9407 94.9732 55.9492 95.1636 55.9492 95.3455C55.9492 95.3561 55.9492 95.3645 55.9492 95.3751H55.9471Z" fill="#DCDBDA"/>
</g>
<path d="M37.9991 98.8342C47.5009 98.8342 55.2795 97.3076 55.9472 95.3751C55.9472 95.3645 55.9472 95.3561 55.9472 95.3455C55.9472 95.1615 55.9387 94.9734 55.926 94.781C55.129 92.8738 47.4098 91.3789 37.9991 91.3789C28.5884 91.3789 20.867 92.8738 20.0722 94.781C20.0595 94.9734 20.051 95.1615 20.051 95.3455C20.051 95.3561 20.051 95.3645 20.051 95.3751C20.7187 97.3076 28.4952 98.8342 37.9991 98.8342Z" fill="#DCDBDA"/>
<g style="mix-blend-mode:multiply" opacity="0.3">
<path d="M37.9991 98.8342C47.5009 98.8342 55.2795 97.3076 55.9472 95.3751C55.9472 95.3645 55.9472 95.3561 55.9472 95.3455C55.9472 95.1615 55.9387 94.9734 55.926 94.781C55.129 92.8738 47.4098 91.3789 37.9991 91.3789C28.5884 91.3789 20.867 92.8738 20.0722 94.781C20.0595 94.9734 20.051 95.1615 20.051 95.3455C20.051 95.3561 20.051 95.3645 20.051 95.3751C20.7187 97.3076 28.4952 98.8342 37.9991 98.8342Z" fill="#DCDBDA"/>
</g>
<path d="M46.0674 79.7334C45.988 79.5977 45.9297 79.4726 45.9067 79.4392C45.8608 78.1335 42.4095 77.1116 37.9938 77.1116C33.5782 77.1116 30.1269 78.1335 30.0933 79.4392C30.0704 79.4726 30.0015 79.5977 29.922 79.7334C27.3751 84.1736 23.0972 92.1554 23.0972 95.653C23.0972 96.8106 52.9029 96.8106 52.9029 95.653C52.9029 92.1554 48.625 84.1719 46.0674 79.7317V79.7334Z" fill="#FEFEFD"/>
<path d="M38.8967 135.039C37.9465 123.137 38.6918 110.838 41.1205 98.4811L41.1417 98.3701H34.8502L34.8714 98.4811C37.3 110.838 38.0454 123.135 37.0951 135.037C31.9165 135.148 27.8452 136.263 27.8452 137.625C27.8452 139.061 32.3633 140.226 37.9359 140.226C43.5084 140.226 48.0266 139.061 48.0266 137.625C48.0266 136.272 44.0189 135.162 38.8967 135.037V135.039Z" fill="#FEFEFD"/>
<path d="M37.9972 98.6395C30.079 98.6395 23.5968 97.3691 23.0422 95.7568C23.0564 103.913 29.747 110.521 37.999 110.521C46.251 110.521 52.9416 103.913 52.9557 95.7568C52.3993 97.3673 45.9189 98.6395 37.999 98.6395H37.9972Z" fill="#FFEFA5"/>
<g style="mix-blend-mode:multiply" opacity="0.3">
<path d="M23.0583 95.2622C23.0213 95.3523 22.9983 95.4424 22.9983 95.5342C22.9983 95.6102 23.016 95.6843 23.0424 95.7585C23.0424 95.7497 23.0424 95.7426 23.0424 95.7338C23.0424 95.5801 23.0495 95.4229 23.0601 95.2622H23.0583Z" fill="#C84557"/>
</g>
<g style="mix-blend-mode:multiply" opacity="0.3">
<path d="M52.9541 95.7585C52.9806 95.6843 52.9983 95.6084 52.9983 95.5342C52.9983 95.4424 52.9753 95.3523 52.9382 95.2622C52.9488 95.4229 52.9559 95.5819 52.9559 95.7338C52.9559 95.7426 52.9559 95.7497 52.9559 95.7585H52.9541Z" fill="#C84557"/>
</g>
<path d="M37.9973 98.6395C45.9154 98.6395 52.3976 97.3674 52.954 95.7569C52.954 95.7481 52.954 95.7411 52.954 95.7322C52.954 95.579 52.9469 95.4221 52.9363 95.2618C52.2722 93.6725 45.8395 92.4268 37.9973 92.4268C30.155 92.4268 23.7205 93.6725 23.0582 95.2618C23.0476 95.4221 23.0405 95.579 23.0405 95.7322C23.0405 95.7411 23.0405 95.7481 23.0405 95.7569C23.5969 97.3674 30.0773 98.6395 37.9973 98.6395Z" fill="#FDD504"/>
<g style="mix-blend-mode:multiply" opacity="0.3">
<path d="M37.9973 98.6395C45.9154 98.6395 52.3976 97.3674 52.954 95.7569C52.954 95.7481 52.954 95.7411 52.954 95.7322C52.954 95.579 52.9469 95.4221 52.9363 95.2618C52.2722 93.6725 45.8395 92.4268 37.9973 92.4268C30.155 92.4268 23.7205 93.6725 23.0582 95.2618C23.0476 95.4221 23.0405 95.579 23.0405 95.7322C23.0405 95.7411 23.0405 95.7481 23.0405 95.7569C23.5969 97.3674 30.0773 98.6395 37.9973 98.6395Z" fill="#FDD504"/>
</g>
</g>
</svg>
