<svg width="21" height="22" viewBox="0 0 21 22" fill="none" xmlns="http://www.w3.org/2000/svg">
<path d="M8.77778 14.6667H16.1111V17.1111H8.77778V14.6667ZM6.33333 4.88889H3.88889V7.33333H6.33333V4.88889ZM8.77778 12.2222H16.1111V9.77778H8.77778V12.2222ZM8.77778 7.33333H16.1111V4.88889H8.77778V7.33333ZM6.33333 9.77778H3.88889V12.2222H6.33333V9.77778ZM21 2.44444V19.5556C21 20.9 19.9 22 18.5556 22H1.44444C0.0999999 22 -1 20.9 -1 19.5556V2.44444C-1 1.1 0.0999999 0 1.44444 0H18.5556C19.9 0 21 1.1 21 2.44444ZM18.5556 2.44444H1.44444V19.5556H18.5556V2.44444ZM6.33333 14.6667H3.88889V17.1111H6.33333V14.6667Z" fill="white"/>
</svg>
